<?xml version="1.0" encoding="UTF-8"?>
<svg id="Layer_1" xmlns="http://www.w3.org/2000/svg" version="1.1" viewBox="0 0 579.9 884.6">
  <!-- Generator: Adobe Illustrator 29.0.1, SVG Export Plug-In . SVG Version: 2.1.0 Build 192)  -->
  <defs>
    <style>
      .st0 {
        fill: #241c19;
      }

      .st1 {
        fill: #dbb6be;
      }

      .st2 {
        fill: #dcd0c3;
      }

      .st3 {
        fill: #ae2328;
      }

      .st4 {
        fill: #66172f;
      }

      .st5 {
        fill: #1e1715;
      }

      .st6 {
        fill: #88776d;
      }

      .st7 {
        fill: #560d23;
      }

      .st8 {
        fill: #ba894f;
      }

      .st9 {
        fill: #86abb2;
      }

      .st10 {
        fill: #87776d;
      }

      .st11 {
        fill: #ebb5bf;
      }

      .st12 {
        fill: #8ebac6;
      }

      .st13 {
        fill: #2b221e;
      }

      .st14 {
        fill: #ebb3bd;
      }

      .st15 {
        fill: #ecb4be;
      }

      .st16 {
        fill: #adc0c0;
      }

      .st17 {
        fill: #bf9345;
      }

      .st18 {
        fill: #211917;
      }

      .st19 {
        fill: #959594;
      }

      .st20 {
        fill: #edbac3;
      }

      .st21 {
        fill: #712141;
      }

      .st22 {
        fill: #3f3733;
      }

      .st23 {
        fill: #cfdee0;
      }

      .st24 {
        fill: #0b0c09;
      }

      .st25 {
        fill: #5f5859;
      }

      .st26 {
        fill: #87aeb6;
      }

      .st27 {
        fill: #453b34;
      }

      .st28 {
        fill: #d9dad6;
      }

      .st29 {
        fill: #e1696e;
      }

      .st30 {
        fill: #f0b466;
      }

      .st31 {
        fill: #534241;
      }

      .st32 {
        fill: #ae7c39;
      }

      .st33 {
        fill: #b0b9ba;
      }

      .st34 {
        fill: #d13b40;
      }

      .st35 {
        fill: #8a7d7c;
      }

      .st36 {
        fill: #e26e73;
      }

      .st37 {
        fill: #907779;
      }

      .st38 {
        fill: #c8dadd;
      }

      .st39 {
        fill: #c0d6da;
      }

      .st40 {
        fill: #bdd5d8;
      }

      .st41 {
        fill: #c6353c;
      }

      .st42 {
        fill: #fe8983;
      }

      .st43 {
        fill: #0b0504;
      }

      .st44 {
        fill: #b7d2d6;
      }

      .st45 {
        fill: #473c36;
      }

      .st46 {
        fill: #c1730f;
      }

      .st47 {
        fill: #fdeec6;
      }

      .st48 {
        fill: #f1e8da;
      }

      .st49 {
        fill: #89502b;
      }

      .st50 {
        fill: #b3b3b5;
      }

      .st51 {
        fill: #6a4a35;
      }

      .st52 {
        fill: #c7373d;
      }

      .st53 {
        fill: #4f5248;
      }

      .st54 {
        fill: #765821;
      }

      .st55 {
        fill: #d1964a;
      }

      .st56 {
        fill: #838e87;
      }

      .st57 {
        fill: #72131c;
      }

      .st58 {
        fill: #87acb3;
      }

      .st59 {
        fill: #28201e;
      }

      .st60 {
        fill: #73141d;
      }

      .st61 {
        fill: #dae4e4;
      }

      .st62 {
        fill: #604f4c;
      }

      .st63 {
        fill: #c4beb5;
      }

      .st64 {
        fill: #b5b0b3;
      }

      .st65 {
        fill: #b5813a;
      }

      .st66 {
        fill: #1d1f1b;
      }

      .st67 {
        fill: #b5ac9e;
      }

      .st68 {
        fill: #d94043;
      }

      .st69 {
        fill: #c80b0a;
      }

      .st70 {
        fill: #3e403a;
      }

      .st71 {
        fill: #1e201b;
      }

      .st72 {
        fill: #fff;
      }

      .st73 {
        fill: #ebf1ef;
      }

      .st74 {
        fill: #548286;
      }

      .st75 {
        fill: #da4043;
      }

      .st76 {
        fill: #920508;
      }

      .st77 {
        fill: #ae2227;
      }

      .st78 {
        fill: #b0252a;
      }

      .st79 {
        fill: #545659;
      }

      .st80 {
        fill: #dde7e6;
      }

      .st81 {
        fill: #0c0504;
      }

      .st82 {
        fill: #b6b1b4;
      }

      .st83 {
        fill: #b8d2d6;
      }

      .st84 {
        fill: #af2328;
      }

      .st85 {
        fill: #c9363d;
      }

      .st86 {
        fill: #2a2c26;
      }

      .st87 {
        fill: #8f7779;
      }

      .st88 {
        fill: #a1a6a8;
      }

      .st89 {
        fill: #930508;
      }

      .st90 {
        fill: #f4cf92;
      }

      .st91 {
        fill: #87abb2;
      }

      .st92 {
        fill: #4b0711;
      }

      .st93 {
        fill: #d19949;
      }

      .st94 {
        fill: #fec0bc;
      }

      .st95 {
        fill: #91787a;
      }

      .st96 {
        fill: #8e7577;
      }

      .st97 {
        fill: #16140f;
      }

      .st98 {
        fill: #cedddf;
      }

      .st99 {
        fill: #281f1d;
      }

      .st100 {
        fill: #548287;
      }

      .st101 {
        fill: #3c3e38;
      }

      .st102 {
        fill: #f26b6a;
      }

      .st103 {
        fill: #763d13;
      }

      .st104 {
        fill: #acbfbf;
      }

      .st105 {
        fill: #967f81;
      }

      .st106 {
        fill: #7e3214;
      }

      .st107 {
        fill: #999089;
      }

      .st108 {
        fill: #e19c40;
      }

      .st109 {
        fill: #e16a6e;
      }

      .st110 {
        fill: #4b413b;
      }

      .st111 {
        fill: #4b0712;
      }

      .st112 {
        fill: #554644;
      }

      .st113 {
        fill: #73141c;
      }

      .st114 {
        fill: #86acb3;
      }

      .st115 {
        fill: #494949;
      }

      .st116 {
        fill: #848f88;
      }

      .st117 {
        fill: #473d37;
      }

      .st118 {
        fill: #a18584;
      }

      .st119 {
        fill: #e16a6f;
      }

      .st120 {
        fill: #7f817d;
      }

      .st121 {
        fill: #d9e4e4;
      }

      .st122 {
        fill: #bad4d8;
      }

      .st123 {
        fill: #c10707;
      }

      .st124 {
        fill: #2b221f;
      }

      .st125 {
        fill: #e26d72;
      }

      .st126 {
        fill: #74141d;
      }

      .st127 {
        fill: #ea2c22;
      }

      .st128 {
        fill: #120c0b;
      }

      .st129 {
        fill: #e26c71;
      }

      .st130 {
        fill: #939387;
      }

      .st131 {
        fill: #f2bc70;
      }

      .st132 {
        fill: #b5afb2;
      }

      .st133 {
        fill: #ad4c12;
      }

      .st134 {
        fill: #4b0b15;
      }

      .st135 {
        fill: #1d1614;
      }
    </style>
  </defs>
  <g>
    <path class="st88" d="M406.2,656.8c0,.7,0,1.4,0,2.1-4.1,3.7-9.2,3.3-14.1,3.4-11.4,0-22.8-.3-34.2,1.4-6.8-.7-13.7.8-20.4-1.1-3.5-1-6.8.5-10.2.8-6.1,1.1-12.2,1.5-18.2-.5-1.4-.5-3-.4-4.5-.4-27.2.4-54.4-1.3-81.7-1-3.5,0-7,.3-10.3,1.5-9-.7-18-1.9-27.1-1.6-1.7,0-3.2-.6-4.1-2.2,0-11.1,0-22.2,0-33.2.7-2.3,0-5.8,3.8-5.8,3.7,0,5.7,2.6,6.1,6,.5,3.6,1.3,7.1,1.3,10.8v1c0,12.8,0,12.7,12.9,13.4,3.4.2,4.9-1.3,5.2-4.5.2-3,0-6,.2-8.9,1.1-4.5,5.5-6,8.7-2.7,1.3,1.3,1.6,1.8,3.1.3,1.4-1.5,2.3.2,2.9,1.3,1.4,2.8,3,5.6,3,8.9-.2,3.3,1.5,4.4,4.6,5.3,5.7,1.6,11.3.5,16.9.4,3.3,0,4-2.5,3.8-5.3-.5-7-1.4-13.9-.9-20.9.4-2.5.9-4.9,1.3-7.3,1-2.4,0-5.3,1.8-7.5,6.6-3.2,13.5-2,20.4-1.1,1.9.3,2.8,2.2,3,4.1,2,9.3-.5,18.8,1.1,28.1,1.3,7.9,2.6,9,10.8,9h10.4c.3,0,.7,0,1,0,8.5,1,12.4-2.9,11.4-11.7-.9-7.8-3.4-15.2-4-23.1-.5-6.2.9-12.2.3-18.4-.3-3.6,4.8-7.5,8.8-7.5s6.6.8,9.7,2.1c3,1.3,3.7,3.6,1.4,5.9-3.8,3.7-3.6,7.9-2.4,12.5,1.3,4.7-.6,10.1,2.9,14.4,1.1,4.8,2.1,9.7,1.2,14.7-.3,1.5,0,3,.6,4.3,2.5,3.2,6.3,1.2,9.3,2.3,1.7.7,3.6.4,5.5.4,5.5.2,6.5-.3,6.2-5.5-.6-10.4-1-20.8-1.1-31.2,0-2.8-1-5.5-2.6-7.9-1.7-4-1.2-5.5,2.6-6.6,4.9-1.3,9.8-.9,14.1,2.3,1.3,6.6,3.7,12.9,4.6,19.5.3,8.5,2,16.8,3.3,25.2.4,2.4.6,5.3,3.8,5.8,3.5.6,7.2.5,10.1-1.7,2.2-1.7,1.4-4.7,1-7.1-1.5-8.7-2.1-17.5-1.5-26.4,1.1-5,5.4-4.4,8.8-4.6,3.3-.2,3.4,3.2,3.9,5.5,1.1,5.8,2.1,11.7,2.5,17.6.4,6.6,1.9,13.1,1,19.8-.4,2.1.9,3.7,1.8,5.5Z"/>
    <path class="st72" d="M60.8,847.8c-9.8,0-19.6-.2-29.4.7-1.5,0-3.6.9-3.8-1.8,0-2.2,1.2-2.6,3.1-3.1,8.3-2.2,8.2-2.3,8.2-10.8v-60q0-8.6-8.1-10.9c-.2,0-.3,0-.5,0-2.2,0-2.9-1.3-2.7-3.3.3-2.4,2.1-1.7,3.5-1.6,15.8,1.3,31.6.7,47.4.6,3,0,6-.3,9-.7,2.9-.3,4.3,1.1,4.8,3.7,1,5.2.8,10.6,3,15.6.4,1,0,1.6-.8,2-1.4.6-2.7.5-3.5-.8-1.1-1.8-2-3.8-3-5.7-2.7-5-6.9-7.6-12.5-7.9-6.8-.3-13.7,0-20.5-.3-2.4,0-3.2.8-3.1,3.1,0,9.7,0,19.3,0,29,0,2.4.6,3.2,3.1,3.1,5.3-.2,10.7-.3,16,0,4.3.2,6.5-1.7,7.4-5.7.3-1.3.6-2.6,1-3.9.5-1.7,1.9-1.6,3.2-1.5,1.7,0,1.6,1.2,1.4,2.5-.8,7.6-.9,15.3,0,22.9.2,1.4,0,2.3-1.5,2.4-1.5.2-3,0-3.1-1.7-.5-11-8.3-9.5-15.5-9.4-3.8,0-8.9-1.2-11.1.7-2.6,2.3-.7,7.5-.8,11.5-.2,6,0,12,0,18,0,3.8,1.5,6,5.3,6.4,7.5.9,15,1.2,22.4.2,5.4-.7,9.3-4.1,12.2-8.7,1.1-1.8,2.2-3.7,3.2-5.6,1-1.8,2.4-1.5,3.9-1,1.9.6,1.2,1.8.8,3.2-1.5,4.9-2.9,9.9-4,14.9-.8,3.7-2.8,4.9-6.4,4.5-9.5-.6-19-.6-28.5-.5Z"/>
    <path class="st6" d="M256.4,610.8c-.4,2.3.8,4.9-.8,7.1-2.6-2.4-2.3-5.7-2.6-8.8-.5-6.3-2-7.5-8.3-5.9-3.3.8-6.5,1.2-9.8,1.1-3.7-.2-5.1,1.5-5,5,.2,7-.2,13.9.6,20.9.5,4.8,1.7,9.9-1.3,14.5-.5.4-1,.5-1.6.3,0-3.6-2.6-6.3-3.5-9.6-2.4.9-.9,3.7-3.1,4.8-1-2.1-1.1-4.8-3.7-5.6-.2,0-1,1.7-1.6,2.7-2,.2-.4-3.3-2.6-2.6-.4,0-.5,1.5-.7,2.3-2.7-.6-2.2-2.9-2.3-4.7-.2-4.7,0-9.4,0-14.2,0-2.9,0-5.8.5-8.7.4-2.6-.3-4.5-2.9-5.3-2.1-.9-3.4-2.5-4.2-4.6-1.8-4.3-3.3-4.6-7.1-2.2-4.7,3-10.1,5-13.5,9.9-.5.7-1.4.8-2.3.7-6.2-4.5-13.6-6.4-20.6-9.1-3.2-1.2-6.3-2.5-9.5-3.7,4.3-6.5,11.2-8.5,18.2-9.5,6.7-1,13.5-.5,20.3-.3,13.4.4,26.7-1.5,40-3.3,1.5-.2,2.9-.5,4.4-.5,3.1,0,6.3-.3,9.4.4,5.9,3.6,10.6,8.9,16.8,12,1.8.9,1.7,2.7,1.4,4.4-.8,4.4-2.3,8.6-4.5,12.5Z"/>
    <path class="st72" d="M234.7,847.8c-4.6.3-9.7.6-14.9.8-1.4,0-3.2.6-3.3-1.8,0-1.8.9-2.5,2.5-3.1,8.8-3.1,8.8-3.2,8.8-12.4v-58.5q0-8.5-8.2-10.8c-.2,0-.3,0-.5,0-2.2,0-2.9-1.4-2.6-3.4.3-2.3,2.2-1.6,3.6-1.5,15.5,1.3,30.9.7,46.4.6,3.2,0,6.3-.3,9.5-.7,3.1-.4,4.7,1,5.2,3.9,1,5.2,1,10.6,3,15.6.5,1.2,0,1.9-1.3,2.2s-2.3,0-3-1.1c-1-1.9-2-3.8-3-5.7-2.9-5.2-7.3-8-13.4-8s-12.7,0-19-.2c-2.6,0-3.8.3-3.8,3.4.2,10,.2,20,0,30,0,2.7,1,3.4,3.5,3.3,4.8-.2,9.7-.2,14.5,0,4.5.2,6.8-1.8,7.6-6,.2-1,.6-1.9.8-2.9.3-2,1.8-2.2,3.4-2.1,2.1.2,1.5,1.6,1.4,3-.7,7.3-.8,14.6,0,21.9,0,1.2.6,2.5-1.1,2.7-1.5.2-3.3.3-3.5-1.8-.7-9.5-7.2-9.4-14.3-9.2-12.1.3-12.1,0-12.1,12.2s.2,11.3,0,17c-.2,4.8,1.9,7.1,6.4,7.7,1.7.2,3.3.8,4.9.9,1.9,0,2.7,1,2.7,2.8,0,2-1.4,2.3-3.1,2.2-5.4-.4-10.9-.6-17-.9Z"/>
    <path class="st72" d="M121.9,802.8c0-10.5-.2-21,0-31.5.2-5.4-1.5-8.6-7.1-9.2-2-.2-4.2-.5-3.7-3.4.5-3,2.8-1.7,4.4-1.6,9.5.8,18.9.7,28.4,0,1.7,0,3.9-1.1,4.3,1.8.3,2.5-1.5,2.8-3.4,3.2-9.8,2-9.8,2.2-9.8,12v59.4c0,7.2.7,8,7.9,8.2,5,0,10,0,15,0,8.2.2,13.4-3.9,16.6-11.2.5-1.2,1-2.5,1.6-3.6.8-1.4,2-1.6,3.4-1.1,1.4.6,1.2,1.7,1,2.9-1,5.7-2.1,11.4-3,17.2-.6,3.7-3.5,2.7-5.5,2.5-10.6-1.2-21.3-.6-31.9-.7-8.7,0-17.3,0-25.9.7-1.3,0-3.2.8-3.6-1.5-.3-2,.7-3,2.7-3.4,8.7-1.5,8.6-2.5,8.6-11.4,0-9.6,0-19.4,0-29.3Z"/>
    <path class="st5" d="M212.4,661.9c2.9-2.8,6.5-2.1,9.9-2.1,16.1.2,32.2.6,48.3.8,12.1,0,24.3-1,36.2.3,7.2.8,14.3,1.7,21.6,1,.2.2.5.4.9.4,1.9.3,4.3-1.5,5.6.3,1.6,2.2-2.6,2.6-2.2,4,1.4,5.5-3.2,7.3-5.9,10.3-18.2-1-36.5-.4-54.7-.5-7.5,0-14.9.7-22.2,2.2-3.9.8-7.6.2-11.3-1-9-2.9-18.1-3.7-27.5-2.6-8.4,1-16.9.3-25.4.3s-3-.4-4.1-1.5c0-.3,0-.7,0-1,2-3.5,5.4-5.1,10.1-3.5,4.7,1.5,8.2.8,11.9-2.5,2.3-2.3,6.1-2.5,8.7-4.9Z"/>
    <path class="st99" d="M146.4,68.1c.4,1.3.7,2.5,1.1,3.8,1.6,12.4,8.5,22.4,15.5,32.1,2.7,3.8,4.5,7.9,5.6,12,.8,3.2,2.6,5.4,3.9,8.1,3.3,6.6,9.9,11.3,10.5,19.3.2,2.6,1.7,4.6,4.3,5.7,2.1,1.8,4.2,3.7,3.5,6.6-.5,2-1.4,4.4-4.5,3.3-9.1-5.7-15.1-14.3-21-22.9-11.6-17.1-22.1-34.8-33.2-52.1-1.5-2.4-2.8-5-5.8-5.8-5.2-5.1-5.5-7.8-1.8-14,3.2-3.6,6.9-6.6,11.1-9,4.9-2.8,7.5-1.6,8.9,3.8h0c2.6,2.6.6,6.2,1.9,9.1Z"/>
    <path class="st80" d="M318.4,286.9c5,19.7,6.2,39.9,8.9,60-.8.8-1.8.9-2.9.7-.8-.2-1.5-.5-2.2-.8-2.9-.9-5.8-.2-8.8-.5-3.9-.3-7.8-.7-10.7-3.9-.8-1.7-1-3.7-.6-5.4,2-7.4-1.5-14-2.5-21-.3-2-1.5-3.6-2.8-5.2-3.2-5.1,0-9.1,2.3-13.2,3.7-5.7,3.6-7-2-10.7-3.4-2.2-4.6-5-3.6-8.8.3-.7.8-1.2,1.5-1.5,3.9-.7,7.7-.8,10.7,2.5,1.7,1.6,2.7,3.7,4.4,5.2,1.2,1.3,2.8,1.5,4.5,1.3,1.5-.1,3-.2,3.8,1.3Z"/>
    <path class="st26" d="M300.3,297.9c-1.9,3.8-5.4,7.2-2.9,12,.5,5.5,0,10.9-.3,16.4-2.2.5-2.6,1-3.7,3.5-.4,1.1-.9,2.4-1.7,3-3.4,2.3-4.3,5.7-5.1,9.4-2.1,1.4-4.4,2.4-6.6,3.6-4.5.9-9.3.5-13.6,2.4-2.1,1.4-3.8,4-6.9,2.1,2-16.1,3.1-32.3,7.6-48,.5-1.7,1.3-3.5.5-5.3,0-1.9.5-3.7,1.1-5.5.7-2.1.8-4.6,2.9-6,2.3-1,4.6-.8,7-.4,3.1,1.3,5.9,3.6,9.7,2.4.9-.3,1.9.4,2.7,1.1,2,1.7,3.7,3.5,4.5,6.2.6,1.9,4.7-.3,4.8,3.1Z"/>
    <path class="st73" d="M331.3,163.8c-2.7,8.2-3,16.7-3.7,25.2-.4,4.4-.7,8.8-1.2,13.2-1.2.8-2.6.7-3.8.4-9.8-2.5-19.8-3.1-29.7-4.6-3.6-2.8-3.6-4,.2-5.6,1.2-.5,2.5-.8,3.8-1.1,3.4-.7,4.2-2.6,3.2-5.8-1.3-3.9-1.3-7.8,0-11.7.6-1.8.3-3.5-.4-5.3-2.9-7.2,1.8-14.9,9.7-15.7,1.8-.2,3.6-.1,5.5,0,6.6,1.7,12.3,5,16.4,11Z"/>
    <path class="st67" d="M118.4,541.9c10.1,2.9,18.9,8.1,27,14.6,1.4,4.2.6,8.7,1.5,13,2,.7,2.5-2.1,4.3-1.7,1.8,1.3,1.9-.5,2.3-1.3,3.5-6.5,6.9-13,10.4-19.4.5-1,.5-1.9-.7-2.4,0-1.1.5-1.7,1.5-2,.5,0,.8,0,1.2.4.8,1.5,2.3,2.4,3.4,3.7-4.3,7.5-8.5,15-12.8,22.5-3.1,5.4-8.4,7.5-14,8.7-11.2,2.3-22.2.2-32.8-3.6-2.9-1-5.7-2.9-6.2-6.5,5.3,0,6.8-1,7.5-7,.6-5.2,3-9.8,4-14.9.4-2,1.7-3.2,3.4-4.1Z"/>
    <path class="st59" d="M243.4,582.9c-3.3,0-6.7,0-10-.2,1-3.2,3.8-2,5.8-2.2,2.8-.2,5.7,0,7.6-2.8.4-.4.9-.7,1.5-.9,10.9-1.3,21.8-1.8,32.8-1.6,17.4.3,34.9.2,52.3,0,4.1,0,8.2.2,12.5,1.5-1.2-1-2.7,0-3.5-1.5,1.8-2.6,4.7-1.6,7.1-1.8,4,0,8,.2,11.8,1.5,2.1,2.1,4.9,1.6,7.5,1.9,15.2,1.4,30.4,2.7,45.5,4,6.3.6,11.8,3.2,17.1,6.4,3.4,2,3.1,4.2,0,6.3-3.3,2.3-7.2,3.1-10.9,4.5-1.8.2-1.5-1.4-1.9-2.3-2.5-6.5-7.3-9.5-14.2-9.5-9.1,0-18.2.3-27.2-1-33.7-1.9-67.4-2.2-101.2-1.7-8.1,0-16.2.9-24.4.8-2.8,0-5.6,0-8.2-1.5Z"/>
    <path class="st10" d="M378.4,583.9c8.5,1.4,17.1,1.2,25.7.9,8.1-.3,13.1,3.7,16.8,10.3.7,1.3-1.6,1.9-.3,3-4.7,2-9.3,4.2-14.1,6-4.7,1.7-5.5,4.6-4.7,9.2,2.3,14.4,3.9,28.9,4.5,43.5-3.4-1.2-4.4-3.3-3.4-6.9,1.8-7.4-.4-14.8-.8-22.2-.2-4.7-1.4-9.4-2.4-14.1-.3-1.7-1.3-4.9-2.5-4.1-2.5,1.8-7.3-1.6-8,3.6-1.7-.2-2-1.6-2.4-2.8-1-3-3.2-3.9-6.2-4-7.9-.2-7.9-.3-9,7.6-.2,1.2-.3,2.3-1.3,3.1-1.1-6.4-4.4-12.3-4-19-.3-.7-.2-1.5.3-1.8,5.1-3.1,8.2-7.9,11.8-12.3Z"/>
    <path class="st34" d="M357.3,540.9v15.1c-4.8,2.4-9.8,1.1-14.8,1.3-2.5-1.8-2.4-4.6-2.6-7.2-1.1-14.2-1.7-28.5-3.8-42.6-.9-6.2-1.1-6.5-7.2-7.4-2.6-.4-5.3-.6-7.9-.8-4.3-.3-7.4,1.1-9,5.3-2.7,1.2-2.6-1.3-3-2.6-1.5-4.7-2.1-9.7-6.9-12.6-1.2-.7-1.8-2.4-.3-3.9,9,2,18,3.7,27.2,4.5,4.4.4,8.9.4,13.3,1.5,6,1.4,6.6,6.6,7.4,11.2.6,3.8.8,7.6,2.3,11.2.2.5.5,1,.3,1.4-3,9.5,4.5,16.8,5,25.6Z"/>
    <path class="st12" d="M235.7,494c.6-7.5,1-15.1,1.9-22.6,1.4-11.1,3.1-22.2,4.8-33.2,1.1-7,1.2-14.2,6.2-20,4.6-2.7,8.3-2.3,12,1.3.6,3.5.4,6.9-1.1,10.1-4.1,11.7-7.7,23.6-7,36.2.2,3-.4,6-.9,8.9-1,5.6-.8,11.2-.7,16.8-.4,2.6-2.7,2.5-4.5,3.2-.5.2-1.1.3-1.7.3-3,0-6.2,1.1-9-1Z"/>
    <path class="st124" d="M181.5,673.9c11.4-.4,22.9.6,34.3-.9,9.2-1.2,18.1,1.4,26.8,4.1,2.2.7,4.1.7,6.3,0,6.4-1.7,13.1-2.2,19.7-2.3,15.5-.2,31,0,46.4,0,4.5,0,8.9.6,13.3.9,5-2.3,10.1-2.5,15,.2-.4,2.7-2.7,2.2-4.3,2.1-5.5-.3-10.9,1.1-16.4.9-1.8,0,.5,1.3-.4,1.8-45.1.8-90.1,1.9-135.1-.8-3.7-.3-6.4-1.6-5.6-6.1Z"/>
    <path class="st86" d="M386.6,172.2c-5.4,9.3-10.8,18.5-16.2,27.8-1.2.6-2.1-.3-3.2-.5.4,1.2,1.9,2.1,1.4,3.6-.8,1.9-1.2,4.2-4.1,3.5-2.5-.4-4.3-2-6.1-3.7-.7-4.6,3.1-7.5,5-10.9,13.3-23.9,27.1-47.6,40.5-71.4,4.5-7.9,8.6-16.1,13.6-23.7.5-.5-.2.1.3-.4,1.8-1.6,3.7-4.5,6.2-2.6,2.7,2,.2,4.7-1,6.6-8.6,14.1-14.9,29.5-24.7,42.9-2.6,3.5-2.2,8.4-5,12.3-2.3,3.3-4.1,7.1-6.7,10.4-1.3,1.8-3.6,4,0,6.1Z"/>
    <path class="st135" d="M357.1,662.7c7.2-1.1,14.3-2.7,21.7-1.8,9.3,1.2,18.5,0,27.6-2,.4,4.8.7,9.5,1.2,14.2.5,3.8-1,5.6-4.8,5.6h-14.4c-7.6-1.2-15.3-1.6-23-1.5-2,0-3.9,0-5.9-.5-2.2-3.3-3.2-7.2-4.6-10.9-.4-1.1,0-2.3,1.5-2.5,0-.4,2,1.1.7-.6Z"/>
    <path class="st85" d="M324.6,346.6c.9.1,1.9.2,2.8.3,0,2,0,4,0,6-.9,6,2,11.6,2.2,17.6,0,5.5,3.2,10.8.4,16.4-.5,1,.3,2.3.9,3.2,1.9,2.8,3.6,5.7,4,9.2-.2-1.8-1.5-3.7,1.5-4.5.7,1,1.3,1.9,2,2.9,0,3.4-.4,6.8-1.1,10.1-1.6,3.1.8,6.1,0,9.2-2.3,1.9-5.1,1.8-7.8,2.3-2.4-.1-5.1,1.1-7-1.6-2.5-12-4.3-24.2-6.6-36.3-.5-2.9-1.2-5.9-1.6-8.8,0-2.7,1.7-5,2.4-7.5,5.3-2.6,5.2-7.7,6-12.5.4-2.1-.3-4.4,1.7-6Z"/>
    <path class="st28" d="M358.4,203c2.4.6,4.7,1.4,6.1,3.7-3.2,8.6-8.7,16-13.2,23.9-8,13.9-15.9,27.9-24.2,41.6-2.8,4.7-5.8,9.2-8.5,14-4.1-2.5-4-6.3-3-10.3,3.8-2.7,5.1-7.1,7.2-10.8,11.9-20.7,23.8-41.4,35.6-62.1Z"/>
    <path class="st58" d="M263.5,200c-.2-12.9-.4-25.7-.6-38.6,0-.4-.4-.9-.6-1.3,2.1-2.9,5.2-2.4,8.1-2.4s5.7-.5,7.9-3.1c2.7-3.3,6.6-3.3,10.5-2.3,2.6,1.8,1.9,4.4,1.3,6.8-.7,2.8-1,5.5.3,8.2,1.5,3.2.7,6.1-2.2,7.8-4.7,2.9-5.8,7-4.9,11.9.7,3.8-.8,5.9-4.5,6.1-3.1.2-3.1,2.3-3.4,4.4-3.6,2.3-7.5,3.5-11.9,2.5Z"/>
    <path class="st41" d="M259.6,350.2c2.6.1,4.4-1.3,5.8-3.2,2.5,5.4,5.5,10.3,9.8,14.3.5.5.5,1.2.4,1.9-4.8,6.2-4.2,14-6.4,20.9-5,5.4-4.1,12.2-4.5,18.7,0,1.8,0,3.6,0,5.5-.2,1.5,0,3.5-2.2,3.9-1.8-4.5-2.5-9.4-4.1-14-1.1-3.1-1-6.5-4.7-8-.9-.3-.7-1.4-1.1-2.1-.3-10.6,2.4-20.6,5.4-30.6.8-2.5,1.4-4.8,1.7-7.3Z"/>
    <path class="st102" d="M329.3,109.1c1.3,2.6,2.3,5.1,0,7.8-3.7,2.9-5,6.3-3.9,11.2.9,4.1-1.2,8.4-.3,12.7-1.9,5.2-5.5,7.9-11.2,7.7,0-4.4-3.8-6.2-6.2-8.9-2.6-2.9-3.3-6.6-3.5-10.2-.2-6-1.5-12.2,1-18.1,4.1-2.9,8.2-1.8,12.3-.1,2.7,1.1,5.2,2.7,9,2.6-1.9-3.6-4.8-4.5-7.3-6-1.2-.7-3.7-.6-2.7-3.2,5.2-1.2,9.1,1.3,12.7,4.5Z"/>
    <path class="st24" d="M248.9,405.8c-15,26.1-30.1,52.1-45.1,78.2-9.6,16.7-19,33.4-28.5,50.1-.8,1.4-1.4,3-2,4.5-2.2.2-3.5-1.4-4.7-2.8,3.1-4.5,9.1-13.9,9.1-13.9l2.7-4.6s5.9-10.3,9.3-15.5c2.5-3.8,6.2-12.3,6.2-12.3-1.5,3.2,7.4-11.5,7.4-11.5l7.5-13c2.6-5.5,5.6-11.1,8.7-15.9,2.9-4.6,8.5-14.3,8.5-14.3l5.1-8.9,5.2-9.2s4.6-9.7,7.6-14.2c.5-.8,1.3-2,1.3-2,0,0,4.5-11.4,6.6-10.5,2.3,1-2.3,11-2.8,12.9-.4,1.2-1,2.3-2.1,2.9Z"/>
    <path class="st46" d="M337.4,407.8c-1.6-3.6-1-6.9,1.1-10.1,11.1,19.9,23.9,38.6,36.2,57.7,6.5,10,12.5,20.3,18.8,30.5.2,4.5,3.1,7.8,4.9,11.7.8,1.7,3.4,3.7,0,5.5-19.6-32.3-40.8-63.4-60.9-95.3Z"/>
    <path class="st98" d="M329.4,417.9c2.7-.3,5.3-.6,8-1,2.8,6.8,3.2,14.1,4.4,21.1,1.5,9.2,2.3,18.6,3.5,27.9-1.3,4.5,1.2,8.8,1.1,13.2,0,1.2,0,2.3,0,3.5.3,2.7,0,5.2-2.8,6.3-3,1.2-4.5-1-6-3.1-2.8-6.4-2-13.4-2.4-20-.9-14.1-3.2-27.9-5.5-41.8-.4-1.9-1.3-4-.3-6.1Z"/>
    <path class="st93" d="M403.7,558.6c2.9.6,4.8.8,7.5.5,6.2-.8,12.5-.9,18.8-1.3,3.1,3.2,6.6,3.2,10.3,1,.7,0,1.3,0,2-.2,1.3,1.8-1,3.5-.5,5.6,2.8-2,.9-3.9.6-5.7,6.2-.7,9.9-.4,14.9-.7h3.1c2.6,2.6,5.5,2.4,2.2,6.7,3.2-1,6-.7,8.5,1.8,1.4,1.6,1.8,3.6,2.2,5.5,0,1.3.3,2.8-1.4,3.3-1.5.4-1.9-.9-2.4-2-.3-.8-.7-1.8-1.6-1.6-4.3.9-8.4-1-12.6-.9-2.4,0-4.5,0-6.8-.7-3.6-1.3-7.6,1.8-11.1-1.2-8.8,6-18.7,0-27.8,2.8-1.3.4-2.6-.2-3.7-1.2-1.6-1.7-1.8-3.8-1.4-6,.2-1.9,0-3.8-.8-5.7Z"/>
    <path class="st100" d="M262.4,70c-.8-1.4-1-2.8,0-4.1,4.6-.5,8-3.9,12.4-4.9,7-.2,8.2.8,7.6,7.3-.3,2.7,1.2,3.5,3,4.4,1.6,5.7,2.4,11.5,1.1,17.5-.2-2.7.3-5.3,1.1-7.8,1.1-3.5,3.7-3.8,6.8-3.2,3.1,1.6,2.5,4.5,1.9,7-.6,2.7-.7,4.8,1.7,6.6,3,2.2.9,4.7-.3,7.4,4.1.4,7.8-.6,11.2,1.2,1.1.8,3.5.7,2.3,3.2-3.1,1.6-6.4.9-9.6.5-4.4-.5-8.7-1.3-13.2-1-3.3-1.6-7.2-.9-10.4-2.6,0-6.2,0-12.5,0-18.8,0-3.3-1.1-5.5-4.8-6.3-4.2-1.1-6.4-5.7-10.8-6.4Z"/>
    <path class="st70" d="M386.6,172.2c-1.4-.1-2.1,1.7-3.7,1.3,0-4,2-6.9,4.3-10.1,3.7-5.1,8-10.1,8.3-17.1,0-1.1.6-2.3,1.4-3.1,5.7-6.2,9.2-13.9,13-21.3,4.1-8,9.1-15.5,12.9-23.6.6-1.2,2.5-2.5.8-3.8-1-.8-2.4.6-3.5,1.3-.8.5-1.8.8-2.6,1.2,0-1.3.4-2.4,1.7-3.1,1.7-1.8,3.2-3.9,5.8-4.6,3.8-1.1,7.2-3,10.3-5.5,1.4-1.2,2.8-2.9,5.1-1.8,0,0,0,.3,0,.4,0,.2,0,.3-.2.5-14.3,22.4-27.5,45.3-41,68.2-.8,1.4-1.9,2.7-2.8,4-4,5.4-7,11.3-9.9,17.1h0Z"/>
    <path class="st65" d="M406.5,569.8c.9.4,1.7.8,2.8.7,7.8-.7,15.6-1.9,23.4,0,1,.2,2.3.5,2.4-.8.4-5.9,2.8-2.2,5-1.3,1.4.7,3.6,2.7,4.4-1.1.4-2,1.6-.8,2.5,0,2.5,2.1,5.1,3.7,8.4,1.6,1.2-.8,2.6-.2,3.2.4,2.4,2.5,5.5,1.4,7.7.8,3.2-.9,4.3-.9,4,2.6,0,.8,0,1.9,1.2,1.6,1-.3.6-1.4.7-2.2,4.8,3.1,10.3,2.2,15.6,2.4,1.8,0,3.7,0,5,1.5-5.6-.3-9.7.8-14.5.9-13.6.4-27.2,1.7-40.8,1-10.1-.5-20.2.2-30.1-2-.3-1.9-2.7-3.6-.9-6Z"/>
    <path class="st41" d="M235.7,494h9.7c-6.8,6.2-6.6,14.9-8,23-1,5.8-3.1,11.5-3.7,17.4,4.4-1.4,8.9-3.9,13.3,0,0,7-.9,13.7-4.5,19.9-6.2,2.1-12.3,2.3-18.5-.2,4.4-19.9,8.9-39.8,11.7-60Z"/>
    <path class="st128" d="M247.4,578.9c-1.1,3.2-4,2.5-6.5,3-2.5.4-5.2-.8-7.5.9-13.6,1.9-27.3,3.4-41,4.2-6.3.4-12.4-.9-18.7-.5-8.9.5-16.3,3.7-23.3,8.6-4.9-3-5-5.7.2-8.3,4.9-2.5,10-4.6,15.6-5,13.1-1,26.1-2.6,39.3-2.8,4.1,2.1,8.2.2,12.3,0,8.4-.4,16.7-1,25.1-1.4,1.6-.1,3.2,0,4.5,1.3Z"/>
    <path class="st39" d="M311.7,104.1c-1.1-.7-2.2-1.4-3.3-2.1-1.1-1.1-1.8-2.3-2.2-3.8-.6-2.6-2.1-4.4-4.8-5.1-1.5-.4-3.1-.9-3-2.8,0-1.8,1.7-2.3,3.2-2.6,4.4-.9,6-3.6,5.1-8,.2-3.6,1.8-5.3,5.5-4.2,1.3.4,2.6.5,3.9.4,4.1-.2,6.4,1.9,6.5,5.8,0,3.7,2,3.9,4.8,3.1.6,8.1-1.1,16.3,2,24.2-4.4-1.3-8.3-4.3-13.2-4.1-1.8,1.2-3.2.4-4.5-.8Z"/>
    <path class="st35" d="M294.4,80c-5.7.1-8.2,3.8-6.1,9.4.4,1.2,1.2,2.1,0,3-.6.4-1.6.5-2.3.5-.9-.1-1.6-.9-1.4-1.7,1.5-5.3,1.6-10.5,0-15.8-.2-.6.5-1.5.8-2.3,1.5-1.7,3.7-1,5.6-1.5,3.7-.9,5.3-3.3,3.9-6.9-1.2-3,0-4.3,2.4-5.4.7-.3,1.4-.4,2.1-.5,1.9-.2,3.9.2,6-.8-2.5-4-4.8-7.9-2.6-12.6,3.9-1.8,6.3,2,9.6,2.6h0c3.7,2.7,6.2,6.4,9,9.9,4.6,2.7,7.5,6.3,6,12.1-2.5,1.9-5,1.2-6.7-.7-4.5-5.1-9.5-8.4-16.1-4.9,2.5.8,4.2,2.9,3.9,6.2-.2,2.7-1.4,4.8-4.4,5.1-.7-.1-1.3-.2-1.9-.5-3.5-2.2-5.5-1.1-6.5,2.7-.1.8-.5,1.5-1.2,2.1Z"/>
    <path class="st12" d="M262.4,70c3.3.2,7.1-1,8.3,4,.4,1.6,2.2,1.1,3.5,1,3.3-.3,4.9,1.8,4.9,4.4.2,7.6,1.2,15.2-.6,22.8,0,1.4-1.1,2.1-2.2,2.3-4.6.8-9,3.1-13.9,1.6,4-8.1.8-16.5.6-24.7,0-3.9-.5-7.6-.6-11.4Z"/>
    <path class="st79" d="M262.5,106c5.2-1.8,11-1.2,16-3.9,3.3-2.8,6.1-.8,8.9,1-1,3.1-4.1,2.7-6.3,3.8-4.2,1-8.5,1.4-12.6,2.8-2.6.9-4.5,2.4-2.2,5.5,1.4,1.8,1.4,4,1.4,6.2,0,5.1,0,10.2,0,15.4,0,3.5,1,6.1,4.5,7.4,2,1.7,4.8,2.8,4.2,6.2-1.9,1.7-4.2,2.7-6,4.4-4.4,3.9-9.1,4.4-14.2,1.5-2.7-1.7-4.9-3.8-5.6-7.1.8-2.7,2.7-4,5.3-4.5,4.5-.9,6.1-4,6.1-8.3s-.6-7.6.4-11.3c.4-3.2,0-6-1.9-8.8-2.7-4-.3-7.2,2-10.3Z"/>
    <path class="st16" d="M275.4,196.8c-3-3.4-2-4.8,2.3-4.9,3.2,0,5.5.1,4.1-5-1.2-4.5-.6-10,5.3-12.6,2.8-1.2,4.1-3.8,1.9-7-1.8-2.7-1.4-5.5-.3-8.5.7-1.8.4-3.9.6-5.9.5-2.4,2.3-4,4.5-4,9.5,0,19.3-1,28.2,3.6,3.2,2.5,6.5,4.8,10.2,6.4-.8,1.5-1.1,3.1-1.1,4.8-5.1-3.5-9.6-8.1-15.8-9.9-7.9-2.2-13.7,2-19.1,6.7-1,.9-2,2-2.1,3.3-.3,6.4-1.6,12.9-1,19.3.8,8,0,9.7-8,11.1-1.6.3-3.2.8-4.9.6,1.5.4,3.2-.5,4.6.3,1,.5,2.3,1,.8,2.5-3.3,1-6.9,1.7-10.2-.8Z"/>
    <path class="st2" d="M151.4,51c8,3.4,15.4,8,23,12.2,12.7,7.1,24.7,15.3,35.7,24.9,6.4,5.6,13.8,14.5-1.3,18.4-15.3-1.1-62.7-42.2-62.3-43.6,0-.2-2.2-3.9-2.2-3.9,0,0,56.2,44.8,65.5,43.1,8.3-1.5,0-9.4-1.9-11.5-3.5-3.5-7-4.7-10.9-7.9-10.5-8.4-23-13-34.5-19.6-3.5-2-7.7-3-11.2-5.2-1.2-1.3-2-2.9-2.3-4.6-.2-1.7-.2-3.4,2.4-2.3Z"/>
    <path class="st40" d="M224.2,554c6,.2,12.1.7,18.2,0,2.9,6.8,2,13.8.6,20.8-4.5,2.6-9.6,2.2-14.4,2.7-2.2,0-4.4.3-6.1-1.6.1-7.3-.6-14.7,1.7-21.8Z"/>
    <path class="st22" d="M186.7,149.8c-5.3-.7-4.6-5.4-5.7-8.8-.2-.8.7-2.2,0-2.8-5.7-4-6.1-11.8-11.7-15.8-.6-.5-1.6-1.2-1.6-1.8,0-11.1-8.4-17.7-13.1-26.4-2.7-5-4.7-10.3-7.8-15.1-1.4-2.2.8-4.8.7-7.3,3,4.3,5,9.2,7.2,14,.5,1.9.9,3.9,2.9,4.8,6.9,10.9,14.1,21.6,19.9,33.1,4.1,8.2,9,15.9,13.8,23.6,1,1.7,2,3.4,2.3,5.5-1.4,2.8-2.3,1.1-3.3-.3-.8-1.2-.7-3.9-3.5-2.7Z"/>
    <path class="st7" d="M493,576c-7.2.9-8.8.6-13.2.9-3.6.3-6-1.5-7.4-4.8-.6-1.7-1.2-3.5-1.8-5.2-1.1-2.1-.8-4.3-.3-6.5,0-.9.5-1.8,1.2-2.4,5.8-1.8,11.8,1,17.6-.7.5,0,1.3.3,1.8.7,3.3,2.9,4.7,13.9,2.1,18Z"/>
    <path class="st21" d="M440.3,558.9c-5.6,5-6.8,4.8-10.3-1,.3-2.7-1.7-4.5-2.9-6.5-8.7-14.8-17.6-29.5-27.1-43.8.4-3.3,3.3-2.4,5.2-3,11.3,18.4,22.5,36.8,35.1,54.3Z"/>
    <path class="st56" d="M322.4,154c-9-4.6-18.9-3.5-28.5-3.9-2-.1-2.9,2-4.5,2.8-4.6.2-9.7-1.3-11.9,5-.5,1.4-2.6,1-4.1,1-3.8,0-7.5-.3-11.2,1.1-2.1-1.2-4.5-1.9-6.1-3.9,5.8,1.8,10.8.7,15-3.7,1.4-1.4,2.9-2.8,5.2-2.7,4.7-3.2,10.2-2.6,15.4-3,7.2-.6,14.5-1.7,21.6.9,5,0,8.3-2.9,11.1-6.7,2.6-.6,4,2,6.2,2.5,2.6.6,5.2,1,5.9,4.3.9,4.3-1.1,7-5.5,7.4-2.9.5-5.8,0-8.6-1.1Z"/>
    <path class="st33" d="M303.5,74.9c2.8-.4,3.9-2.1,3.9-4.8s0-2.4-8-6.8c4.5-.2,8.2-.7,11.9-1.9,2.8-.9,4.7,1.9,6.5,3.7,2.7,2.6,4.9,6.1,9.5,4.9,0,5,0,10,0,15-1.3,1.1-1.7,3.6-4.1,2.7-2.2-.8-1.8-2.9-1.8-4.7,0-4.5-1.4-7.1-6.6-5.3-.7.2-1.8.1-2.3-.3-3.6-2.8-4.5-.5-5.1,2.6-2.3.7-4.5-.4-6.8,0-1.7.2-3.3-.1-4-2.1-.4-1.1-.2-2.3.6-3.2,1.3-1.7,2.9-1,4.4-.3.7.2,1.4.2,2,.5Z"/>
    <path class="st134" d="M299.4,59.7c-.7.1-1.4.3-2,.4-5.8,2.2-11.6,3.3-17.7,1.5-1.6-.5-3.6-.6-5.3.4-4.1,1.1-6.8,6.2-12,3.9-.7-3.2,1.5-5.3,3.2-7.4,4.1-4.8,7.7-10.1,14.5-11.5,5.5-1.5,8.1,3.7,12.3,5.3,2.3.9,4.3,3,6.7,4.2,1.2.6,2.8,1.9.3,3.2Z"/>
    <path class="st111" d="M324.6,207.1c-.3.4-.7.7-1,1-5.7.6-8.2,5.5-11.8,8.8-2,1-3.7.7-4.2-1.6-.7-2.7-2.6-3.1-4.9-3.1-1.7-.1-3.2-.6-4.8-1.1-3-1.1-5.5-1.1-7.7,2.1-1.8,2.6-5,4.1-7.5,6.3-2,.4-3.5-.1-4.3-2.1,2.5-6.4,6.8-11.1,13.5-13.4,2.5-.9,1.8-3.8,3.7-4.9,8.5-.3,16.8.7,24.9,3.2,1.9.7,4.2,1.8,4.1,4.8Z"/>
    <path class="st84" d="M248.9,405.8c0-2.5,1.9-4.8,1-7.4-1.8,0,1.8.2,0,0,.8-4.8,1.5-5.7,2.6-10.4,5.9,1.5,5.8,6.2,7.4,10.9,1.5,4.5,2.2,8.6,2.6,13.1,1.1,1.1,1.1,2.5,1,3.9-.4,2.1-1.2,3.8-3.6,4.1-3.2-4-7.4-2.2-11.3-2-1-4,1.3-8,.3-12.2Z"/>
    <path class="st15" d="M338.4,485.7c1.8.6,2.4,3.7,4.9,2.5,2.4-1.1,2.2-3.5,2.1-5.7,0-3.8.2-7.6-.9-11.4-.5-1.6-.7-3.7.8-5.2,1.3,9.7,2.5,19.4,3.8,29-2.8.9-3.8-3.8-6.8-2.3-8.4-.9-16.8-1.5-25-2.8-5.4-.8-11.2-.2-15.8-4-.4.3-.8.5-1.3.6-3-.9-6.4,1-9.1-1.5-.5-.9-.5-1.8,0-2.8,2.5-1,5.2,0,7.7-.8,4.8,2.4,9.5,1.2,14.2-.6,3,3.8,6.6,5,11.4,3.9,2.7-.6,5.5-1.3,8.4-1,2,.3,3.9,1.2,5.7,2.1Z"/>
    <path class="st124" d="M212.4,661.9c-1.6,2.1-1.8,6.2-6.2,4.1-5,6.9-11.7,5.5-18.6,4.1-1.8-.3-4.7.3-6,2.7v-13.9c5.2,1.2,10.5.9,15.7,1,5.1.2,10.1.8,15.1,2Z"/>
    <path class="st66" d="M425.3,90c-2.1,1.3-4.1,2.7-6.1,4,6.4-12.4,12.6-25,19.4-37.2,2.6-4.7,6.6-1.6,9.8.2.2.3.3.7,0,.9-7.7,6.9-8.7,18-15.5,25.5.3.2.5.4.7.7-1.6,3.8-5.3,4.4-8.4,5.9Z"/>
    <path class="st68" d="M299.4,59.7c0-.6.2-1.2.2-1.8-4.5-.1-6.3-5.7-11.1-5.3-.3,0-.8-.2-.8-.4-.6-4.7-4.8-3.9-7.7-5.3,3.2-2.6,8.8-2.5,9.6-8.1,1.9,0,3.8,0,5.4-1.3,1.2-1,2.7-1.8,4.4-.8-.7,3.5,0,6.6,2.7,9.1,2.5,3.9-.3,10.2,6.9,12-3.7,2.7-6.7,2-9.6,1.9Z"/>
    <path class="st112" d="M278.4,217.1c1.1,1,2.5,1.6,4,1.9,2,.7,2.1,2.2,1.8,3.9-2,2.7-2.3,5.3-1,8.6,1.8,4.7-.3,9.5-1.5,14.1-4.2,12-4.8,24.6-6,37.1-1,1.2-2.3,1.2-3.6.8-1.2-.4-.9-1.8-1.5-2.6,1.6-14.7,4-29.3,8.2-43.5.7-2.6,1.2-4.8-.5-7-.6-.8-1.3-2-1.1-2.7,2.9-7.5-3.9-10.7-6.8-15.6-.5-1.2-2.8-1.4-1.8-3.4,2.7-1,4,1.1,5.3,2.6,1.5,1.9,3.3,3.6,4.5,5.8Z"/>
    <path class="st130" d="M118.4,541.9c-3,5.7-4.8,11.8-5.9,18-.3,1.8-1.1,3.5-1.3,5.1-1,5.8-3.5,6-7.6,2.8-4.1-7.3,3.3-21.3,8.3-24.6,2-1.3,4.1-1.7,6.5-1.3Z"/>
    <path class="st110" d="M358.4,675.8c10.1,0,20.3-.8,30,3-22,1.5-44,1.7-66,2-.5-1.3-1.8-1.8-3-2.4,8.1-.8,16-2,24.1-1.6,4.8-2.2,9.8-2.1,14.9-1Z"/>
    <path class="st48" d="M151.4,51c-1.3.2-2.3.8-1.2,2.1,1.2,1.5,1.3,3.1,1.2,4.9-1.6-.4-3.2-.8-4.7-1.4-2.7-1-2,1.1-2.3,2.4-3.2-5.4-4.3-5.7-9.8-1.9-3.3,2.3-6.7,4.7-9.3,7.8-1.8.4-1.9,2.9-3.9,3.1.2-3.4.5-6.8,2-10,.7.5.8,1.6,1.5,1.8,1.2.2,1.1-1,1.1-1.7,0-1.4.3-2.9-.6-4.1,1.8-5.3,6.8-6.5,11-6.6,5-.1,10.3,1.1,15,3.6Z"/>
    <path class="st62" d="M180.4,607.9c3.9-6.3,10.9-8.7,16.5-12.9,2.5-1.9,6.9-.3,7.4,2.8.4,2.4,1.1,4.1,3.2,5.2-1.1,2.7-2.8,1.5-4.3.6-5.5-3.6-7-2.8-7.5,3.9-.2,3.1.3,6.4-2.7,8.7-2.2-1.8-4.4-2.8-7.1-.4-1.3,1.1-3.3,1.7-4.4-.8-.3-2.5-.7-4.8-1.1-7.1Z"/>
    <path class="st4" d="M406.5,569.8c-.6,2.2,2.8,3.7,1,6.1-4.1-.9-8.1-2-12.2-2.6-4.4-.6-5.5-3.4-5-7,.5-3.5,1.2-7.4,6.5-6.7,2.3.3,4.6-.3,6.8-1,2.6,0,3.1,1.4,2.4,3.5-.8,2.7-.8,5.3.5,7.7Z"/>
    <path class="st101" d="M433.7,84.1h-3.1c3.9-5.3,7.7-10.3,9.3-16.9.9-3.8,4.7-7.5,8.4-10.1,6.4,3.8,6.4,3.9,2.4,9.9-2.7,4.1-5,8.5-8.5,11.9-2.4,2.3-4.7,5-8.5,5.2Z"/>
    <path class="st119" d="M313.4,218c-.8,2-2.8,2.7-4.4,4.4,3.6,1.7,4,4.4,2.6,7.7-1.1,1.3-2,2.8-3.9,3.1-3.3,1.8-5.4-1.5-8.2-2-2.5,7.1-1.2,14.4-1.6,21.6,0,2.5.7,5.4-1.7,7.4-2.6-1.1-2-3.5-2.1-5.5-.3-6.1.5-12.1-.6-18.2-.4-2-.5-4.1-.3-6.1.8-3.8,3.3-6.7,5.2-9.9,1.4-2.3,4-2.6,6.5-2.8,2.1-.2,4.2.4,6.3-.5.8-.1,1.6,0,2.2.8Z"/>
    <path class="st37" d="M268.4,209c.7,1,1.3,2.1,1.9,3.1-1.2-.6-2.3-1.2-3.5-1.9-6.1-3.2-6.3-3.8-3.3-10.3,4-1,8-2.1,12-3.1h11c2-1.7,4-.5,6,.1,11.5.6,22.8,1.9,33.9,5.2-.2,1.8.3,3.8-1.7,5-2.7-4.1-7.1-4.4-11.3-5.2-6.2-1.1-12.5-1.7-18.8-1.8-2,1.8-4.4,1.1-6.7,1.2-5.5.2-10.9-.3-16.3.9-6,1.4-6.3,1.9-3.2,6.8Z"/>
    <path class="st23" d="M361.3,575c-3.7,1.2-7.3-.3-11,0-.4-.5-.7-1-1-1.5-1.7-4.1-3.7-8.1-3.3-12.8.3-3,1.4-4.6,4.7-4.2,2.3.3,4.6-.5,6.8.5,2.1,5.9,3,12,3.8,18.1Z"/>
    <path class="st14" d="M329.4,144c-2.1-.2-3.2-2-4.9-3-1.4-2.6-1.2-5.4-.5-8.1.6-2.3.6-4.5,0-6.8-1.5-6-.9-6.9,5.4-9.2,0,6.4,2.5,12,5.1,17.7-.8,3.6-1.2,7.5-5.1,9.4Z"/>
    <path class="st25" d="M126.6,77.9c2.7-.1,4.3,1.6,5.5,3.6,11,17.6,21.9,35.1,32.8,52.7.3.5.3,1.2.4,1.9-7.9-7.6-12.7-17.4-18.8-26.2-5.4-7.8-10.4-15.9-15-24.2-1.3-2.5-2.9-4.9-5.1-6.7-.3-.3-.3-.6-.2-.8s.2-.3.4-.3Z"/>
    <path class="st11" d="M307.5,232c1.3-.6,2.7-1.3,4-2-1.1,12,1.3,23.7,3.3,35.4.6,3.5.3,6.9.8,10.4,1.2,3.4.5,7.3,3,10.3,0,.3,0,.5-.2.8-2.9-1.4-6.8,2-9.1-2,1-1.4,3.1-1,4-2.5,1.4-3.6-.5-6.7-1.3-10-.7-2.7-1.5-5.3-2.1-8.1-1.7-8.9-2.9-17.9-3.8-26.9-.3-1.8-.2-3.8,1.4-5.4Z"/>
    <path class="st125" d="M342.3,492.7c3.2-2,4.5,1.6,6.8,2.3,4,15,6.7,30.3,8.1,45.9-1.8-2-3.1-4.2-2.9-7.1.2-3-1.4-5.5-3.3-7.6-1.7-1.8-2.6-4.3-1.4-5.9,2.4-3.4.8-6.2-.3-9.2-1.7-4.5-.3-9.6-2.6-14.1-1.1-2.1-2-3.8-4.4-4.3Z"/>
    <path class="st32" d="M226.6,227.1c-11.2-17.1-20.4-35.3-30.1-53.1,1-1.4,2.3-2,4-1.3,3.5,5.9,5.3,12.6,8.9,18.5,1.4,2.4,2.7,4.9,5.3,6.3.8.7,1.4,1.5,1.7,2.5.9,5.5,4.5,9.8,7,14.5,1.3,2.6,2.9,5.1,4.3,7.8.8,1.6,1.5,3.6-1.1,4.8Z"/>
    <path class="st31" d="M299.2,37c-1.8.3-3.5,1.2-4.8,2.5-2,2.2-3.4,1.1-4.8-.6-3.8-4.9-4.4-10.1-1-12.2,2.8-1.8,6.1-3,8.2,1.3.6,1.1,1.7,1.9,2.6,2.9,2.6,2.2,2.5,4.2-.2,6.1Z"/>
    <path class="st6" d="M181.6,614.8c2.1,1.5,3.8.2,5.3-1.1,3.5-3.2,5.2-2.1,5.7,2.2,3.7,3.7,3.3,8.3,2.9,12.9-.2,1.8-.6,3.6-1.1,5.3-.5,1.3-1.1,2.6-2.8,2.7-.4-3.1-1-6.2-1.1-9.3,0-3.4-1.2-5.9-4.6-6.7-3.9-.9-2.9,3.2-4.3,4.7,0-3.4,0-7,0-10.7Z"/>
    <path class="st129" d="M336.4,394.8c-1.7,1.4-.5,3.5-1.4,5.4-2-3.5-3.2-7.3-5.8-10.2-1.3-1.5-1.4-3.9-.4-5.1,2.1-2.5.6-4.8.6-7.3,0-7.7-3.5-14.9-3-22.6,0-.9.3-1.6,1.1-2.1,3.2,8.4,2.8,17.5,4.8,26.2,1.2,5.3,1.6,10.8,4.1,15.7Z"/>
    <path class="st131" d="M214.3,198.1c-1.4,0-2.4-.3-3.2-1.7-4.4-7.5-8.6-15-10.7-23.5-.9-.9-1.5-2-1.5-3.4.4-2.1,1.5-2.5,3.1-1.2,1,.8,1.6,2.1,2.9,2.6,5.2,7.9,9.9,16.1,13.8,24.8.8,1.3.5,2.4-.6,3.4-1.2.6-1.9,0-2.3-1-3.1-7.5-7.1-14.6-11.3-21.5,3.3,5.9,5.9,12.2,9.2,18.1.4.9,1.5,1.9.6,3.4Z"/>
    <path class="st114" d="M329.4,144c2.6-2.7,2.4-6.9,5.1-9.5,6.2,8.3,5.5,15.8-2.1,24.4-4.7,1.1-6.9-2.7-10-4.9,2.3,0,4.6,0,6.9-.1,2.7-.1,5.9.9,6.1-3.6.2-3.6-.5-5.8-4.8-4.9-.3.1-.8-.9-1.2-1.4Z"/>
    <path class="st107" d="M204.8,170.8c-1.5.4-2.5-.4-3.3-1.6-1.2-1.8-1.8-.8-2,.7-2.4-.2-3.8-2-5.4-3.4-1.3-1,1.3-6.3-3.7-3.4-1.3-1.3-2.6-2.7-3.9-4,4.9-3.2,5-3.9.3-9.3-.2-.8-.6-1.8.3-2.2,1.7-.8,2,1.1,3.1,1.7,1.5.9-.3,5,3.5,3.6,4.5,5.4,7.9,11.6,11.1,17.9Z"/>
    <path class="st16" d="M357.5,556.9h-3.4c-6.5,0-8.9,3.7-6,9.9,1.1,2.4,2.4,4.6,2.2,7.4-3.2,0-6.4,1.1-9.4-.6-2-5.8-1.5-11.4,1.8-16.7,4.8-1.9,9.8-.8,14.7-.8,0,.2.1.5.1.8Z"/>
    <path class="st8" d="M248.4,263c-6-10-12-19.9-18-29.9.4-.6,1-.7,1.7-.8,1.1.2,2.2.1,3.2.4,3.5,3.9,5.1,9.2,8.8,13,2.1,4.5,5.1,8.3,7.3,12.7.6,1.1,1.6,2.1,1.1,3.6-1.2,1.3-2.6,1.1-4.1,1Z"/>
    <path class="st55" d="M269.5,292.1c-.2,1.7-.7,3.4-1.8,4.7-5.4-9.6-10.8-19.2-16.2-28.9.3-1,1-1.5,2.1-1.6,1,.1,1.8.6,2.5,1.2,1.9,2,3.6,4.3,5.1,6.6,1.5,4.2,4.3,7.7,6.3,11.6,1.1,2.1,2.5,4,2,6.4Z"/>
    <path class="st45" d="M222.4,575.7c2,0,4,.2,6,.3,4.7,1.1,9.4-.8,14,.3,1.7.4,3.6,0,5,1.5v1c-13.4.2-26.8,1-40.1,2.5-1.2,0-2.4.6-3.1-.6-.2-.3.7-1.2,1.2-1.9,5.5-1.5,11.7.1,17-3.1Z"/>
    <path class="st30" d="M252,261.9c-2.6-5.4-7-9.9-8.6-15.9,1.1-1.6,2.4-2.2,4.2-1.1,4.5,4.6,7.6,10,9.9,15.9-.8,2.5-2.4,3.5-5,2.5-.4-.3-.6-.8-.5-1.4Z"/>
    <path class="st30" d="M234.5,233.2c-.8.8-1.5.8-2.1-.2-.8-1.4-.6-3-.7-4.5,0-.5,0-.9.2-1.3.5-1.8-.6-3.2-1.5-4.6-4.7-7.3-8.4-15.1-13-22.4-.3-.4-.3-.9,0-1.3.4-1.1.7-2.1,1.1-3.2,2.9,2.4,3.8,6,5.7,9.1,4,6.3,7.6,12.8,11.3,19.2,0,1.4-.3,3.3,2.2,3,.5,1,1.1,2.1,1.6,3.1.3,4.1-3.7,1.4-4.9,3.1Z"/>
    <path class="st82" d="M262.4,125c.3,4.1.8,8.2,1,12.3.2,5-2,7.9-6.9,8.6-2.6.4-4.1,1.9-5.8,3.3-.8-3,.8-5.5,1.8-8.1,1.2-3,3.5-3.5,6.6-2.6,1,.3,1.2-1.6,1.5-2.8.9-3.6.2-7.4,1.8-10.7Z"/>
    <path class="st90" d="M234.5,233.2c0-1.2.2-2.4,1.8-1.8s2.4-.1,3-1.4c3.3,4.7,6.7,9.2,8.2,14.9-1.4.4-2.8.8-4.2,1.1-4.6-3-5.3-8.9-8.8-12.8Z"/>
    <path class="st90" d="M269.5,292.1c-2.6-4.5-5.1-9.1-7.9-13.5-1-1.5-1.3-2.9-1.2-4.6.3-1.8,1.4-2.9,3.2-3.2,2,3.8,4.1,7.5,6.2,11.3,0,0,.4,0,.4-.1.2-.3.2-.6.4-.9.4.6.7,1.1,1.1,1.7.6,1,.8,2.1,0,3.2-.8,2-1.5,4.1-2.2,6.1Z"/>
    <path class="st108" d="M405.3,504.6c-1.3,1.8-3.8,1.4-5.2,3-.6-1.5-1.2-3-1.7-4.5,1.7-3.1-1.2-4.7-2.2-6.9-1.5-3.3-5-6-2.7-10.3,3.9,6.2,7.8,12.4,11.8,18.7Z"/>
    <path class="st53" d="M151.2,567.8c-1.7,1.5-2.4,4-5.4,4.8,0-5.5-1.8-10.7-.4-16.1,1.9.8,3,2.4,4.2,4,2.5,3.6,2.6,3.5,1.6,7.3Z"/>
    <path class="st1" d="M299.2,37c1.9-1.9,1.8-4,.2-6,1.7.2,3.3,1.3,2.7,2.8-3,6.7,2.7,8.6,6.2,11.5,1.2,1,2.7,1.8,4,2.7-3.5-.2-6.5-2.7-10.2-2.1-4.3-1.8-5.7-4.6-2.9-8.9Z"/>
    <path class="st30" d="M226.6,227.1c1.2-1.4.9-2.8,0-4.2-3.1-5.5-6.1-11.1-9.4-16.5-1.3-2.1-2-4.1-1.7-6.6,2.6.5,2.7,3.1,3.8,4.8,4.6,7.5,9.2,15.1,13.1,23.1,0,.2-.2.3-.3.5-1.2.9-2.6,1.2-4,1.5-.6-.8-1.1-1.7-1.6-2.6Z"/>
    <path class="st90" d="M263.6,270.9c-1.1,1.1-2.1,2.2-3.2,3.2-2.4-1.4-3.3-4.1-5.1-6.1.8-2.2.3-5.1,3.2-6.2,2.1,2.9,4.5,5.5,5.1,9.1Z"/>
    <path class="st17" d="M462.4,561.9c-.9-1.4-1.3-2.6-2.2-4,4.5,0,7.3-.4,11.2,0,0,1,0,2,0,2.9-2.7,3.3-5.7,2.8-8.9,1Z"/>
    <path class="st105" d="M313.4,218c-.7-.1-1.5-.2-2.2-.2-.3-.7-.4-1.3.3-1.7,3.3-3.7,5.1-9.7,12-7.9-3.5,3.1-7.5,5.7-10.1,9.8Z"/>
    <path class="st51" d="M194.5,166.2c2.4.2,3.8,1.9,5,3.7,1.2.7,1.5,1.7.9,2.9-1.3.4-2.6.8-3.9,1.1-1.4-2.2-2.8-4.5-4.2-6.8.4-.9.9-1.8,2.2-.9Z"/>
    <path class="st71" d="M169.3,546.7c-2.4,0-4.5-.6-3.8-3.8.4-2.5,1.5-4.5,4.3-4.7,1.6,0,2.9.7,2.7,2.7-1.1,1.9-2.1,3.9-3.2,5.8Z"/>
    <path class="st19" d="M433.7,84.1c2.8-1.7,5.7-3.4,8.5-5.2.6,1.9-.8,2.9-1.8,4.1-2.1-1-2.9,1-4.2,1.8-3.4,2.3-6.5,5.1-10.9,5.1,2.6-2.1,6.1-3.2,8.4-5.8Z"/>
    <path class="st63" d="M125.4,54c2.1.2,1.9,1.8,2,3.3.2,2.3-.3,5.1-2.6,5.1-2.5.1-.8-2.9-1.4-4.4,0-1.7,1.4-2.7,2-4Z"/>
    <path class="st86" d="M386.6,172.2c2.1-6.4,5-12.3,10-17-3,5.9-6,11.8-10,17Z"/>
    <path class="st97" d="M194.5,166.2c-.7.3-1.5.7-2.2,1-1.5-1-1.2-2.8-2-4.1.3-1.4,0-3,1.8-4.1.9,2.4,4.5,3.7,2.4,7.2Z"/>
    <path class="st63" d="M126.6,77.9c0,.4,0,.7-.2,1.1-4.1-2.6-5.7-6.2-4.9-11,1.1-1.2,1.3-3.6,3.9-3.1-3.9,6.3-3.8,7.1,1.2,13Z"/>
    <path class="st90" d="M258.6,261.8c-1.2,2-1.2,4.7-3.2,6.2-.6-.4-1.2-.8-1.7-1.2-1.3-1.1-1.9-2.3-1.1-4,2.3.8,3.3-1.5,5.1-2.1.2.4.5.8.9,1.1Z"/>
    <path class="st1" d="M321.4,58c-4.1-2.3-6.1-6.5-9-9.9,4.7,1.7,7.6,5.1,9,9.9Z"/>
    <path class="st67" d="M172.5,540.9c-4-5-4.7,1.4-7,2h0c-1.3-2.7,1.3-4.2,2-6.2,0-.6.5-.9,1.1-.8,2.2-.2,3.1,1.9,4.7,2.8.2.9,0,1.6-.8,2.2Z"/>
    <path class="st103" d="M252.5,262.9c.4,1.3.7,2.6,1.1,4-.7.4-1.4.8-2.1,1.1-1-1.7-2.1-3.3-3.1-5,1-1.1,2.4-1,3.7-1,0,.3.2.6.4.9Z"/>
    <path class="st106" d="M228.2,229.7c.7-2,2.4-1.7,4-1.5.8,1.5,1.8,3.1.2,4.7-.7,0-1.3.1-2,.1-.8-1-1.5-2.1-2.2-3.3Z"/>
    <path class="st120" d="M368.6,203.1c0-.3-.3-.6-.4-.9-.7-1.9-5-2.3-3.3-4.4,1.7-2.2,3.6,1.4,5.5,2.1-.6,1.1-1.2,2.2-1.8,3.2Z"/>
    <path class="st115" d="M167.4,536.7c.8,2.5-2.2,3.9-2,6.2-.7.6-1.5,1.1-2.2,1.7l-.4.2h-.4c-.3-.2-.4-.4-.3-.6,0-.2.2-.3.2-.3.9-3.1,3.2-5,5.1-7.2Z"/>
    <path class="st133" d="M237.8,226.9c-.4,1.1-.8,2.5-2.3,1.4-1.7-1.3-1.8-3,0-4.5,1.1.8,1.7,1.9,2.2,3.1Z"/>
    <path class="st99" d="M157.6,90.7c-2.5-.2-3.2-1.4-2.9-4.8,1.3,1.4,2.4,2.9,2.9,4.8Z"/>
    <path class="st67" d="M162.4,543.9c.2.3.3.6,0,.9,6.4-1.8-1.7,15-7.3,18.8-1,.7-4.2,20-3.9,4.2,0-2.8.3-4.1,0-4.8,1.4-2.4,9.7-16.7,11.1-19.1Z"/>
    <path class="st48" d="M146.4,68.1c-1.8-2.8-.3-6.3-2-9.1,3.7,2.4,1.6,6,2,9.1Z"/>
    <path class="st118" d="M378.4,583.9c-1.4,6.9-7.4,9.8-12.1,14-4.7-1.5-9.3-3-14.3-1.1-3,1.1-2.7,2.3-.6,4-3.7,2.6-8.2,2-12.3,3.1-5.6,1.5-6.1,1.9-6.2,7.7,0,4.6.4,9.3-2.5,13.4-4-4.2-5.5-22.6-2.2-26.3,3.9-4.3,3.8-4.7-1.8-6.3-1.9-.5-3.8-1-5.8-1.3-4.9-.8-9.4,4.3-8.5,9.2.3,1.9.6,4,.2,5.9-1.7,8.7,0,17,2.4,25.3,1.8,6.2,1.8,12.2-1.2,18-1.4,2.8-3.5,3.8-6.5,3-1.6-.4-3.2-.6-4.8-.9,6.8-3.4,5.6-9.1,5-15.2-1-9.2-1.3-18.5-2.2-27.7-.6-5.8-1.8-7.2-7.4-8.1-3-.5-6-.4-8.9-.4-5.8,0-7.1,1.4-7.8,7.3-.3,2.3.8,5.2-2.3,6.5,0-3-1.4-4.5-4.6-4.2-5.8.5-11.8-1-17.5,1-.2-2.9,1-5.5,2.1-8.1,2.3-5.6,2.1-7.9-3.5-10.3-5-2.2-7.8-6.3-11.6-9.6,30.9-.2,61.8-2.5,92.7-.8,14,.9,28.1,0,42.2,1.9Z"/>
    <path class="st135" d="M278.5,614.1c.5-3.6,1-7.2,1.6-10.8.4-3,2.2-4.4,5.1-4.3,4.6.2,9.3,0,13.9.4,5.3.4,7,3.5,7.3,7.7,1.1,12.6,1.6,25.2,2.8,37.8.6,5.9-3.8,5.6-7.1,6.8h-13.4c-6.2,0-7.8-1.3-9.1-7.4-2-10.1.5-20.2-1.1-30.2Z"/>
    <path class="st18" d="M228.4,644.8c1.9-4.5.8-9.2.8-13.8,0-8.1-.4-16.3-.8-24.4-.2-3.1,1-4.3,4.1-3.9,4.5.7,8.8,0,13.2-1.4,6.3-1.9,8.9.2,8.6,6.7-.2,3.4,1.3,6.5,1.3,9.8-.4,2.3-.8,4.6-1.2,6.9-1.1,6.3-.3,12.6,0,18.8,0,2.4.2,4.8-2.6,5.9-2.9,1.1-5.6.5-7.9-1.6-1.7-1.6-1.9-3.8-2-6-.3-9.5-1.1-18.9-.4-28.4,0-.7-1,0-.3,0,0,0,.2,0,.2.5.3,9.2-.7,18.3-.5,27.4,0,2.7-.9,5.3-3,7.1s-4.5,2.1-7,1.3c-2.6-.6-2.6-2.7-2.5-4.8Z"/>
    <path class="st135" d="M330.4,624.9c.3-5.5.7-10.9,1-16.3,0-2.8,1-5.1,3.9-5.5,5.4-.6,10.6-2.9,16.1-2.3,2.4,2,2.6,4.9,2.6,7.7,0,10.9.7,21.8,1.5,32.7.6,7.4-.8,8.4-8.1,6.6-3.3-1.3-3.5-4.1-3.5-7-.2-7.8.2-15.6.6-23.4,0-2.3-1.1-4.7-.2-6.8-.9.7,0,1.9,0,3,.5,8.6,0,17.3-.8,25.8-.7,7.5-4.8,9.1-11.9,5.4-.5-6.6-.9-13.3-1.2-19.9Z"/>
    <path class="st0" d="M370.3,616.9c0-2.6.2-5.3,0-7.9-.2-3.6,1.4-4.7,4.7-4.2,1,.2,2,0,3,0q8.4.2,11.2,8.1c.3,10.1.6,20.2,2.2,30.2.6,3.8-.8,5.5-4.9,6-11.8,1.6-12.5,1.4-13.8-10.3-.7-7.3-3.1-14.5-2.4-22Z"/>
    <path class="st81" d="M358.4,675.8c-4.9,1.3-10,1-15,1-4.9-2-10-.4-15-1,.2-.7-2.7-1,0-2.3,2.1-1.1,5.8-2.7,1.8-6.2-1-.8.2-1.3.8-1.8,1.1-.9,2.8-.9,3.5-2.4-2-1-4.4.6-6.1-1.3,4.2-.7,8.2-2.3,12.4.7,1.5,1.1,4.4,0,5.9-.4,3.8-1,6.9.9,10.4.6,1.1.2,2.2.3,3.9.5-6.2,1.1-6.4,1.7-3.2,6.7,1.3,1.9,3,3.7.7,5.9Z"/>
    <path class="st27" d="M228.4,644.8c.8,3.3,2.7,4.8,6.1,4,3.9-.8,4.9-3.7,4.9-7.1,0-10.3,0-20.5,0-31.5,3.2,1.5,3.1,3.2,3,4.8-.5,9.3,1.4,18.5,1,27.8-.2,4.5,2.3,5.8,6.1,6,4.5.2,3.8-3,4-5.8.5-6-1.3-12.2.9-18.2-.5,7.2.4,14.3,1.1,21.4.5,4.8-1.5,6.7-6.2,6.5-5.6,0-11.1.9-16.8-.5-4.5-1.1-5.9-3.1-4.9-7.3.2,0,.5-.1.8-.1Z"/>
    <path class="st13" d="M191.6,637c.5-.8,1.1-1.6,1.6-2.4,2.4.8,2.3,3,2.5,4.9.2,1.3,0,2.7.4,4,.5,1.9,1.7,2.8,3.6,2.8s2.9-1.3,3.1-3.1c.3-2.7,0-5.3.2-8,0-1.8,0-3.7.3-5.5.3-1.4.9-2.8,2.4-2.8s1.8,1.7,2,3c.4,4.6,0,9.3.3,13.9.7-7,1.1-14,1.1-21.1s-.9-4.8,2.2-5.8c.6,6.7-.7,13.5,1.1,20.1,0,3.8-.2,7.6-.4,11.4-.2,3.4-1.9,5.2-5.6,4.3-.8-.2-1.6-.2-2.5-.3q-13.5-1.7-12.3-15.4Z"/>
    <path class="st117" d="M331.5,644.8c.6.2,1.3.3,1.9.5,6,1.5,7.5.9,8.3-5.1,1.2-10,1.8-20,1.7-31.2,1.8,3.3,2.1,5.9,2.1,8.5,0,8,0,15.9,0,23.9,0,2.5.4,4.6,2.1,6.3-4.6-.3-9.1-.6-13.7-.9-1.4,0-2.2-.6-2.3-2Z"/>
    <path class="st72" d="M458.9,843.7c-3.4-.9-6.8-2-9-5-8.1-10.9-16.1-22-24.2-33.2,1.9-1,3.6-1.8,5-2.6,8.9-5.4,13.8-15.4,12.2-24.9-1.8-10.3-8.7-17-19.7-19.2-3.1-.6-6.2-.9-9.4-.9-10.9,0-21.9.2-32.9-.6-1.6,0-3.9-1.4-4.4,1.5-.6,2.9,1.7,2.9,3.7,3.3,6.9,1.4,7.6,2.2,7.6,9.3v62c0,8.2,0,8.3-8.1,10.3-1.8.4-3.4.8-3.1,3,.3,2.5,2.3,2,3.9,1.8,8.8-.8,17.6-.6,26.4-.4,2.3,0,6.4,2.7,7-1.6.5-4.3-4.1-3.1-6.4-3.5-4.7-.9-6.9-3-6.8-8,.2-8,0-16,0-24,0-1.3-.6-2.7,1-3.6,2.5-1.3,9.5.3,11.2,2.8,5.4,7.7,11.5,15.2,16.1,23.4,6.3,11.1,14.7,17.2,27.9,15.1.3,0,.7,0,1,0,1.3-.3,3.2,1,3.5-1.5.3-2.1-.7-3-2.6-3.5ZM411.3,801.2q-10.3.9-10.3-9.5c0-3,0-6.2,0-9.4,0-5.2,0-10.3,0-15.5,0-2.2.4-3.5,3-3.2,2.8.3,5.7,0,8.5.3,14.1,1.7,21.6,19.6,13.1,31.1-3.5,4.7-8.8,5.7-14.2,6.2Z"/>
    <path class="st72" d="M490.4,758.8c-19.5,7.7-31.6,29.3-28.6,50.8,2.1,15.4,8.6,27.9,22.9,35.2,25.4,12.9,68.1,1.3,67.9-41.7-.1-34.4-31.2-56.6-62.2-44.3ZM536.2,822.5c-3.4,11.5-11.7,18.5-23.7,19.9-12,1.3-21.4-3.6-27.9-13.7-6.3-9.6-8.4-20.4-8.5-33.6-.5-6.1,1.1-13.5,5.5-20.1,11.2-16.7,36.7-16.4,48.2,1.1,9.3,14.2,11.2,30.2,6.4,46.4Z"/>
    <path class="st81" d="M211.3,616.9c-1.5,1.5-.9,3.5-.8,5.2.2,7.9-.4,15.8-1,23.6,0,1.1.3,2.7-1.4,2.6-1.3,0-1.6-1.5-1.6-2.7v-18c-2.6.7-2,2.5-2,3.8,0,3.7,0,7.3,0,11,0,2.6.6,5.7-3.5,5.8-3.9,0-6.8-.8-6.5-5.8.2-2.6.5-5.3-1.2-7.7,1.6-6.3,1.5-12.5-.6-18.6,2.2-3.1,1.8-6.7,1.9-10.1,0-2.8.6-5.4,3.5-6.6,3-1.3,4,1.2,5.4,3,1.1,1.5,2.4,2.4,4.1.6,4-.5,4.9,1.7,4.6,5.1-.3,2.9-.5,5.8-.8,8.8Z"/>
    <path class="st72" d="M366.2,843.7c-6.4-.7-8.8-5.1-11-10.6-9.8-24.7-19.8-49.2-29.8-73.8-.6-1.3-.6-3.1-2.6-3.2-2.1,0-2.8,1.4-3.5,3-.3.8-.7,1.5-1,2.3-9.5,22.8-18.9,45.7-28.4,68.5-2.6,6.3-4.1,13.7-13.2,14-1.6,0-1.8,1.7-1.6,3.1.2,1.2.7,1.8,2,1.6,8-1,15.9-.7,23.9,0,1.2,0,2.3,0,2.4-1.7,0-1.3,0-2.4-1.4-2.9-1.3-.4-2.6-.7-3.9-.9-4.2-.9-5.6-3-3.6-7.1,1.1-2.3,1.9-4.9,3-7.3,2.1-4.5,2.3-11.1,6.1-13.2,3.8-2.2,9.7-.5,14.7-.5,0,0,0-.2,0,0,4,0,8,0,12,0,2.6,0,3.8.9,4.6,3.3,1.9,5.5,4.1,10.9,6.2,16.3,2.7,7,2.7,7.2-4.4,9.2-2.1.6-3.4,1.4-3,3.6.3,2.3,2.3,1.5,3.6,1.4,9.3-.8,18.6-.9,27.9,0,1.4,0,3.3.7,3.6-1.5.2-1.8-.4-3.3-2.6-3.5ZM305.5,808.7c4.5-10.9,8.7-21.6,13.2-33.1,4.4,11.5,8.4,22.1,12.5,33.1h-25.7Z"/>
    <path class="st75" d="M303.4,342.1c4.6,2.8,9.7,2.9,14.9,3.1,1.8,0,3.7-.4,5.3.6-1,1.5-2.6,1.5-4,1.5-4.5-.3-6.9,1.6-7.3,6.1-1.6,2.3-3.1,4.7-3.6,7.6-.2,1.1-.6,2.4-1.4,3.1-3,2.7-6.5,5.2-2.5,9.8.8.9,0,2-1.4,2.6-3.3,1.6-3.3,3.5-.6,6.1,2.2,2,5.5,2.6,7,5.4,0,.5,0,1,0,1.5-1.6,3.4-4.2,5.9-7,8.3-2.6,2.3-4.5,1.4-5.8-1.5-1.1-2.5-1.3-5.1-1.6-7.8-.5-4.6-1.2-9-2.2-13.6-.9-4.2-.6-9-.6-13.5s2.6-4.8,5.5-5.6c1.5-.4,3.5-.1,4-2.3.8-2.1-.7-3.3-1.8-4.6-1.5-1.8-2.7-3.6-2.1-6.1.5-.5,1.2-.8,1.8-1.1,1.3-.2,2.5-.9,3.5.4Z"/>
    <path class="st42" d="M314.4,284c-1.4,1.8-3.4.7-5.1,1-2-1.1-2.6-3.4-3.9-5-4-4-4.6-8.9-4.6-14.2,0-10.6-1-21.3-1.5-31.9,0-1.7-.3-3.3.9-4.7,2.3,1.3,3.6,5,7.3,3-.4,11.2,2.7,22,3.7,33-2,.1-3.1-.7-3.4-2.7.4,7.6-2.4,16.3,6.6,21.5Z"/>
    <path class="st94" d="M300.2,229.1c1.5,13.3,2.1,26.7,2,40.1,0,4.1,2.5,7.1,3.1,10.8-2.6-3.5-6.9-1.8-10.2-3.3-.6-.6-.8-1.4-.8-2.2s0-1.6.3-2.4c1.2-3.9-.9-8.3,1.7-12,.9-9.2-.7-18.5.9-27.6.4-2,.2-4,3-3.4Z"/>
    <path class="st77" d="M311.3,354c.2-7.9.3-8.1,8.3-8.1s2.7-.1,4-.2c.3.3.6.6,1,.9-.4,4.3-.6,8.6-1.2,12.8-.5,3.2-1.7,6.1-5.9,5.5-.7,0-1.3-.2-1.9-.4-7.7-2.1-8.2-3.4-4.3-10.5Z"/>
    <path class="st132" d="M300.3,297.9c-3.7-1.2-6.5-3.5-8.5-7-1.3-2.2-3.3-3.4-6.2-2-3,1.5-4.1-2-6.2-2.8,1.2-3.8,3.9-6.1,7.8-6.3,2.6-.1,4.4-2.1,7-2,0,3.8.6,6.6,4.7,8.6,5.8,2.9,5.8,5.7,1.4,11.5Z"/>
    <path class="st44" d="M303.4,342.1h-2.8c-1-4.6-1.7-9.4-4.6-13.4-.4-.5,0-1.3.4-1.8,0-5.7-1.4-11.5,1-17,2.7,2,4.3,4.5,4,8,0,.5,0,1.1,0,1.5,3.9,7.3,2,15.1,1.9,22.7Z"/>
    <path class="st96" d="M294.2,277.9c-1.8,2-3.8,3.5-6.9,3.1-4.1-.6-5,3.8-7.9,5.2-2.6-.1-5.2-.1-7.8-.2v-3.2c1.3.1,2.5.2,3.8.2,4.6-3.3,9-7,15.1-7,1.5-.5,2.7-2.5,4.6-1v1.6c-.2.4-.5.8-.9,1.3Z"/>
    <path class="st3" d="M303.4,353c0,2.6-1,3.8-3.8,4-5.8.6-7.3,3.4-5.2,8.9.3.8,1,1.7.8,2.3-2.4,8.5,2.5,16.4,2.2,24.7,0,2.1.3,4.5,2.2,5.2,2,.8,2.8-1.8,4.1-3,2-1.9,3.8-4.1,5.7-6.2,2,2,1.5,4.6,1.6,7,0,4,0,7.9,0,11.8,0,2.5-.5,5-3.5,5.8-2.7-.4-5.2-.1-7.8.7-6.1,1.8-12.3,2.4-18.7,2-2.2-.1-4.3-.6-5.4-2.9-1.3-5.2-.5-10.5-.7-15.8-.3-9.8.5-19.5-.6-29.3-.2-1.8,0-3.6,1.1-5.2-3.4-2.4-5.5-6-8.2-9.1-1.5-1.8-2-4.4-1.8-7,4.7-2.7,10-1.4,14.9-2.4,3.1,4,1.7,9.3,3.8,13.6,6.6-1.7,11.2-10.3,19.3-5.1Z"/>
    <path class="st83" d="M279.5,306.5c0,9.3-2,17-3.2,24.8,0,.5-.2,1-.4,1.4-1.7,2.5-2.9,7-5.9,6.4-3.1-.6-1.6-4.9-1.5-7.5.2-10.8,2.7-21.3,4.2-31.9.3-2.2,1.9-4.3,4.2-4.3,2.4.1,1.7,2.9,2.1,4.4.7,2.6.4,5.3.5,6.7Z"/>
    <path class="st113" d="M303.4,353c-.3.1-.7.4-.9.4-6.8-2.6-11.1,2.3-15.8,5.5-3,2-4.3,2.4-4.5-2.1,0-4.1-1.2-8.2-1.9-12.2,1.6-1.9,3.8-2.3,6.1-2.5,4-.8,7.9-1.2,11.7.9,1.4,2.9,2.6,5.8,5.4,7.7,1.1.6.8,1.5,0,2.3Z"/>
    <path class="st64" d="M298.1,342.9c-3.8-1.1-7.9,1.2-11.7-.9.2-3.2-1.2-6.4,3.3-8.6,2-1,5.1-4.8,1.8-8.6,2.4-.4,3.6.8,4.8,2.1,1,3.4,4.1,5.7,4.5,9.5.2,2,.2,3.8-.3,5.7-.7.3-1.5.5-2.4.8Z"/>
    <path class="st38" d="M292.4,196.9c-2,0-4-.1-6-.1-2.4-1.8-5.4-.2-8.4-1.3,2.9-2.3,6.1-2.5,9.1-2.9,4.8-.6,6.3-3.2,5.1-7.5-1.9-7.2.9-14.3.4-21.5-.3-3.8,9-10,14.6-10.5,2.7-.2,5.6-1.1,8.2.7-5-.2-9.4.4-13.4,4.4-3.4,3.4-3.4,6.1-1.2,9.4,1.2,1.8,2.1,3.3,1,5.4-2.3,4.3-1.8,8.7-.2,12.9,1.3,3.6,1,5.7-3.3,6.2-1.9.2-3.8,1.1-5.7,1.6-3.6,1-.9,2.2-.2,3.2Z"/>
    <path class="st95" d="M247.4,577.9c-6.3-.6-12.7-1.2-19-1.8,4.7-.5,9.4-1,14.1-1.4,6.6-2.4,13.7-2.1,20.5-3.1,3.3-.5,6.6-.6,9.8-1.5,4.2-1.5,7.7.9,11.5,2,5.7,2.9,11.7.5,17.6,1.2,7,.8,14.1,1.6,21.3,1.3,2.2,0,4.3,0,6.2-1.3,4-.9,8-1.3,12-.3,2.8,1.8,5.9.4,8.8,1.2,0,.2.2.5,0,.8h-6.9v.7c1.9.2,3.8.3,5.7.5-33.9,1-67.8-.5-101.7,1.7Z"/>
    <path class="st123" d="M311.2,504.9c-.4,8.7,1.2,17.3.3,26-6.1,2.9-12.2,5.8-18.1,9-3.1,1.7-6.5.7-9.3-1.5-2.8-3.2-4-7-2.8-11.1,1.6-5.4,2.1-10.9,1.5-16.3-.8-7.1,1.6-13,5-18.8,1.5-2.7,4.1-3.6,7-4.1,1.9-.3,3.7-1.3,5.4-2.3.4,0,.7,0,1.1.2,0,.5,0,1.2.3,1.4,7.1,3.7,7,11.4,9.6,17.5Z"/>
    <path class="st69" d="M246.3,533.9c-5,0-10.2-1.1-13.9,4.1,0-7.2,2.5-13.4,3.5-20,.7-4.2,2.1-8.4,2.3-12.7.3-5.3,2.2-9.2,7.2-11.3.3-.2.6-.2.9-.2,2.7-.9,3.7.6,4,2.9.2,1.6.2,3.3.4,5,.7,9.4-1.7,18.7-2.2,28-.1,1.6-.7,3.2-2.2,4.2Z"/>
    <path class="st52" d="M249.5,501c-.4-1-1.1-1.9-.5-3.2,1.1-2.6-.3-3.6-2.6-4,1.4-.6,2.9-1.2,4.3-1.8.2-.4.5-.5.8-.2,6.8,0,13.2-2.1,19.9-2.8,1.8.3,4.4-.2,4.2,2.8,0,2.2-1.5,3.1-3.8,2,.9,1,3.2.2,3,2.3-.2,1.8-1.4,2.9-3.1,3.4-5.5.4-11,.8-16.4,1.8-1.9.3-3.9,1.1-5.8-.3Z"/>
    <path class="st122" d="M251.4,491.8c-.3.2-.5.2-.8.2-2.4-3.6-1.4-7.8-1.1-11.5,1.3-14.7,1.6-29.5,5.9-43.8.8-2.7,1.2-5.5,3-7.7-.5,11.9-3.5,23.5-4.4,35.3-.5,9.2-3,18.2-2.6,27.5Z"/>
    <path class="st104" d="M333.2,484.8c-1.9-14.6-2.2-29.4-5.6-43.8-1.8-7.5-2.7-15.3-4-23,2,1.4,3.8-.9,5.8-.2,3.1,11.3,4.8,22.8,6,34.4,1.1,11.1,2,22.3,3,33.4-2.1,1.8-3.3-1.1-5.2-.8Z"/>
    <path class="st109" d="M315.4,371.8c-1-1.3-2-2.6-3-3.8-.5-.6-.5-1.2,0-1.8.5-.6,1.2.4,1.5-.1,0-.3-.6-.8-1.1-.8-2.3,0-3.1,1.6-3.5,3.5-.8,3.8-1,7.6,0,11.4.7,2.3.8,4.5.2,6.9,0,.3,0,.6-.2,1-2.6-1.5-5.2-2.9-7.7-4.5-3-1.9-2.6-4.9-1.9-7.6.8-3,2.7.1,4-.3,0-.3.5-.6.4-.8-2.3-5.5-2.3-6.3,1.6-10.4,1.5-1.6,1.5-3.6,2.3-5.4s.5-4.5,3.4-4.9c0,.8,0,1.7-.3,2.4-2.5,4-1,6,3.3,6.5,1.4.2,2.4.9,3.1,2.1.4,2.4-1,4.5-2.2,6.6Z"/>
    <path class="st74" d="M277.3,172.6c1,3.8-1,6.9-3.7,9.5-1.5,1.4-2.5,4.7-5.4,3-2.7-1.5-4.5-4-3.7-7.5.7-2.8.9-5.5.8-8.4,0-4.3,2.7-6.8,6.3-6.9,3.5-.1,5,3.3,5.6,6.6.3,1.1.1,2.3.1,3.7Z"/>
    <path class="st36" d="M268.2,383.9c-.9,9.5-1.7,19-3.9,28.2-.3,1.4-.5,2.9-1.8,3.9v-4c.2-6.8,3.6-13.6-.6-20.2-.5-.7-.2-1.5.5-1.6,3.6-.6,4-4.1,5.8-6.3Z"/>
    <path class="st49" d="M313.4,147.7c-12.4-.1-24.7.8-37,2.1-1.3-1.6-2.7-3.1-4-4.7,0-5.3,1.2-6.5,6-6.4,1.3,0,2.2-.4,3.2-1,3.7-2.7,8-2,12.2-2.3,4.7,3.6,10.6,2.6,15.8,4.4,1.3,1,2.4,2.2,3.8,3,2.7,1.7,1.6,3.3,0,4.9Z"/>
    <path class="st57" d="M281.3,105.9c2.1-.9,4.2-1.8,6.2-2.7,4.5-1.8,8.9-.1,13.2.3,3.6.4,7.2.8,10.9.7,1.5.3,3,.6,4.5.9,3.2,1.7,6.5,3.3,9.6,5.1,1.5.9,3.6,1.9,2.1,4.2-1.2,1.9-3.1,1.5-4.9.6-1.7-.8-3.5-1.3-5-2.2-3.6-2.2-7.4-2.7-11.5-1.6-3.2,1.8-6.9,1.1-10.4,1.7-8.3-2.4-13.3,2.1-17.3,8.5-1.1,1.7-1.7,4.1-4.5,3.8-2.9-8.9-1-12.2,10-16.8-1.1-.8-2.7-1-2.9-2.5Z"/>
    <path class="st127" d="M295.6,112.2c3.5-1.9,7.3-.9,10.9-1-1.6,9.9-2.8,19.7,3,28.8-5.7.1-11.6,1.3-16-3.8-4.4-6.3-3.3-18.4,2.1-24Z"/>
    <path class="st54" d="M462.4,561.9c2.9-.6,6.1,1,8.9-1-.2,2-.5,4-.7,6-2.6-1.8-5.4-2-8.3-1.2,0-1.3,0-2.5,0-3.8Z"/>
    <path class="st65" d="M442.2,558.7c2.4.4.6,4.4,5.3,3.3-1.9,1.4-2.2,1.9-2.6,1.9-1.9,0-2.7,3.4-4.4,1.9-2.4-2.1.8-3.7,1.3-5.6,0-.6.3-1,.4-1.5h0Z"/>
    <path class="st9" d="M303.5,74.9c-1.1-.2-2.2-.3-3.4-.5-2-.3-2.6.9-2.6,2.6s1.4,2.4,2.7,1.8c2.8-1.2,5-.7,7.2,1.2,1.6,4.9,0,8-4.8,9-1.4.3-3.6-.3-3.6,1.6s2.3,1.2,3.7,1.5c2.7.4,3.6,2.6,4.4,4.8.6,1.7.8,3.5,1.2,5.2-2.9-.4-5.7-1.5-8.7-.2-1.1.5-2.7.3-3.6-1.1-.8-1.3.2-2.3,1-2.9,2.5-2,1.9-3.5-.6-4.8-2.7-1.4-3.3-3.2-1.7-6.1,1.2-2.1,1.4-4.8-.3-7-.3-3,.5-5.9,3.1-7.3,2.3-1.3,4.1,1,6,2.2Z"/>
    <path class="st79" d="M274.4,62c1.3-1.4,3.1-.9,4.7-1,6.1-.3,12.2-.6,18.3-.8-.5,1.2-3.3,1-1.8,3.7,2.9,5,.2,9.1-5.7,9.2h-4.5c-4.2.5-5.8-.6-4.2-5.2,1.6-5.2.5-5.9-6.8-5.9Z"/>
    <path class="st111" d="M281.3,105.9c1.8,1.6,4.5.6,6.5,2-.6,1.8-2,1.1-3,1.5q-10.3,3.9-10.3,15.7c-.3,6,4.8,9.3,7.1,14-.5.9-1.3,2.1-2.1,1.7-5.8-3.9-5.5,1.8-7.2,4.4-4.2-.1-5.9-2.4-5.9-6.4,0-5.8,0-11.7,0-17.5s0-5-2.8-6.8c-2.9-1.8,0-3.6,1.3-4.4,5.1-3.2,10.8-3.5,16.4-4.2Z"/>
    <path class="st89" d="M294.4,230c0,2,0,3.9,0,5.9.9,8.4,0,16.9.5,25.3-2.1,2.6-3.4.7-4.6-.9-1.5-2.2-1.4-4.7-1-7.2,1.1-6.8,1-13-4.3-18.6-2.8-3-3.9-7.3-1.8-11.6.2-1.5-.2-2.7-1-3.9,1.5-4.2,6.6-5.1,8.5-9.3.8-1.7,4.2-.9,6.5-.3,1.7.5,3.4,1.1,5.1,1.6,0,2-1.6,2.4-2.9,2.8-3.7,1-5.3,4.2-7.5,6.8-1.1,1.4-.9,2.8,0,4,1.5,1.6,1.5,3.6,2.3,5.4Z"/>
    <path class="st43" d="M268.4,209c-.9-.4-1.8-.8-2.7-1.3-1.1-.6-2.7-1-2.3-2.7.3-1.5,1.4-2.3,2.7-2.7,3.8-1.3,7.6-2.3,11.6-2.4,5.6-.1,11.2.1,16.8.1,1.5,1.2,2.2,2.4,0,3.6-2.5,1.3-5,2.6-7.4,4.1-2.7,1.6-5.5,3.2-5.6,7,0,2.2-1.5,2.2-3,2.4-2.8-.6-3.6-3.2-5.3-4.9-1.4-1.3-2.4-3.2-4.7-3.2Z"/>
    <path class="st78" d="M294.4,230c-1.3-1.9-2.6-3.8-4-5.5-1.1-1.4-1.2-2.7,0-4,3.1-3.2,5-7.9,10.4-8.3.5,0,1.1-.7,1.6-1.1,3.3-.4,6.6-1,6.2,4.4-.2,2.2,1.8.8,2.9.6,0,.6-.2,1.1-.3,1.7-.9.3-1.9,1-2.8.9-9-1.5-11,5.5-14.1,11.3Z"/>
    <path class="st50" d="M306.5,412.8c-1.2,1.8-3.4,2.1-5,3.1-1.5,1.7-4,1.9-5.2,3.8-1.5,2.3-1.5,4.9,0,7.1,5.5,8.7,5.2,18.4,4.3,28.1-.6,6.8-.5,13.6-.7,20.4,0,2.3.4,4.7-1.4,6.6-2.3,1.4-4.6,2.5-6.9,0,0-3.9-.4-7.8-1.2-11.7-1.2-5.2-.9-10.5.9-15.7,1.5-4.2,0-6.2-3.9-8.4-3.7-2-8.2-1.7-11.6-4.3.3-7.6.4-15.2,1-22.8,0-1.8,0-3.5,0-5.3,8,1.9,15.8,1,23.6-1.3,2.1-.6,4.2-2,6.2.3Z"/>
    <path class="st121" d="M298.4,481.9c-.7-12.9,1.2-25.8,1-38.7,0-5.7-1.3-11-4.8-15.8-3.6-4.9-.2-10.4,6.9-11.4,4.5,5.7,2.2,13,4.7,19.6,2.1-1.7.5-5.1,4.1-6.5-.5,17.6,3.1,34.6,2,51.9-4.3,5-9.1,3.7-13.9.9Z"/>
    <path class="st60" d="M271.5,548.9c-1.5-9.6.3-19.2,0-28.8-.2-7.1.5-14.2.8-21.4.5-1,1.1-1.9,1.6-2.9-.2-.8-.9-.7-1.5-.9-1.5-.4-4.6.7-4.2-1.8.5-2.7,2.7-1,4.2,0,.8.6,1.5.3,2-.5.6-1,.6-1.9-.5-2.5-.8-.5-1.7-.8-2.6-1.2,1.2-1.6,4.1-1.4,4.3-4,5.2-2.7,10.4-2.5,15.7,0,2.9,1.1,6.1-.7,9,.8-.8,3-3.6,3.9-5.9,3.8-2.4,0-3.5,1.2-5,2.3-8.7,2.4-10,9.2-10.7,16.9-.8,8.2-.4,16.2.9,24.2.4,2.7,1.3,5.1,3.5,6.9,7.7,0,14.3,5.5,22.2,4,1.8-.3,3.6-.5,5.1,1,.2,1.2-.5,2.1-1.1,2.9-11.7,3-23.5,4.8-35.6,2.2-.9,0-1.6-.4-2.2-.9Z"/>
    <path class="st91" d="M291.3,484.9c-5.2,0-10.4,0-15.7,0-1-1.4-1.3-3-1.2-4.7.9-12.8,0-25.6,1.2-38.3,4.9-.3,9.4,1.8,13.6,3.7,3.2,1.5,5.2,4.5,3.5,8.7-2.9,6.8-2.5,13.8.2,20.6,1.1,2.8-.7,4.7-1.5,7,0,1,0,1.9,0,2.9Z"/>
    <path class="st126" d="M283.4,222.9c-.3,5.4,1.2,9.9,5.2,13.8,4.8,4.7,2.9,10.7,2.2,16.4-.4,3.7-1.1,7.3,3.6,8.8,1.8,3.6,1.9,7.3,1,11.1,0,.7,0,1.3-.2,2-1.8-.4-2.4,1.6-3.8,2-10.2-4.2-13.2-9.9-11.5-21.9.5-3.3,2.1-6.7.6-10.1,1.5-5.8,3.8-11.4-.4-17.3-1.5-2.3,2.6-2.8,3.3-4.8Z"/>
    <path class="st92" d="M280.5,244.9c3.6,1.6,2,4.5,1.4,6.8-1.3,5.6-.8,11,.4,16.5.7,3.3,2.2,5.5,5.7,5.7,2.1.1,2.7,1.6,3.4,3.1-6.2-.4-10.2,5.3-16,6-.6-1.1-2.3-1.6-1.8-3.2,3.5-11.4,2-23.8,6.9-34.9Z"/>
    <path class="st78" d="M295.4,273.1c-.3-3.7-.7-7.4-1-11.1,0-8.7,0-17.4,0-26.1,1.8,4.9.4,10,1,15,.3,3-.7,6.2.9,9.1-.6,4.3,1.3,8.9-1,13.1Z"/>
    <path class="st29" d="M314.4,284c-4.5-.4-7.7-4.3-8-10v-12.2c2.5,0,3.1,2.4,4.8,3.2,1.3,4.5,2.6,8.9,3.8,13.4.6,1.9,1.1,3.9-.6,5.6Z"/>
    <path class="st47" d="M232.5,227.8c-5.5-5.1-7.5-12.4-11.6-18.4-2-2.9-3.5-6.3-5.2-9.5-.4-.6-.9-1.2-1.3-1.9-4.2-8.1-8.4-16.2-12.6-24.3.4-.2.8-.5,1.3-.7,6.5,7.6,10.4,16.8,14.5,25.8,4.9,4.5,6.1,11.2,10,16.4,1.9,2.5,3.2,5.4,4.8,8.1.8,1.5,1.4,2.9,0,4.5Z"/>
    <path class="st58" d="M273.3,570.9c-2.1-1.9-2-4.3-1.5-6.8.9-4,.9-8.1.5-12.2,2.4-1.1,4.9-.4,7.3,0,4.2.7,8.2,4.3,12.7.8.2,0,.7.6,1,1,1,6,.8,12,.4,18.1-3.2,2.6-6.9.6-10.3.9-3.2-1.1-6.5-2.5-10.1-1.8Z"/>
    <path class="st116" d="M283.4,572.8c3.2-2,6.8-.4,10.2-1.1,5-2.1,9.9-2.3,14.8.2,7,.7,14.1,1.3,21.1,2-.2,1.7-1.5,1.9-2.9,2-8.5.4-17-.2-25.3-1.3-5.2-.7-10.5,1.8-15.6-.6-.9-.4-1.6-.8-2.3-1.2Z"/>
    <path class="st61" d="M308.3,572c-4.9,0-9.9-.2-14.8-.2-2.2-6.2-.6-12.6-1-18.8.3-1,1-1.8,2-1.9,5.3-.3,10.2-3.2,15.7-2,3.7,2.1,2,5.5,1.7,8.3-.4,3.3-2.2,6.4-.8,10,1.1,2.3-1.7,3.1-2.8,4.6Z"/>
    <path class="st3" d="M310.4,544.9c-6.6.7-13.3,1.9-19.2-2.8-.9-.7-2.5-.2-3.8.3-2.1.9-3.8.7-5-1.5-.3-2.3,1.8-2.3,3.1-3,3.5,2.1,6.5,1.8,10.2-.4,4.9-2.9,9.7-6.7,15.9-6.6,1,4.8-.5,9.3-1.2,14Z"/>
    <path class="st87" d="M310.3,549c-5.9,1.3-11.8,2.6-17.7,3.9-.9.7-1.9,1.2-2.7,2-1.8,1.7-3.2,4.6-5.4,0-.8-1.7-4.3-1.9-6.8-2-1.8,0-3.6,0-5.3-.9-.7-.9-1-1.9-.8-3.1,11.8,1.7,23.4.7,35-1.6,1.1-.2,1.9,0,2.8.5.2.4.5.8.9,1.2Z"/>
    <path class="st76" d="M285.4,537.9c-1,1-2,2-3.1,3-3.8-1.7-3.8-5.3-4.4-8.8-2-10.5-1.6-21,.5-31.4,1.4-6.8,4.2-8.8,10.9-8.9-5.7,8.5-5.2,18.1-5,27.8,0,2.7-1.1,5.4-1.7,8.2-.8,3.8,0,7.2,2.8,10.1Z"/>
    <path class="st20" d="M309.6,387c.3-4.9-3.5-9.1-2.2-14.1.5-2,.7-4.2,1-6.3.2-1.2.8-2.2,2.1-2.5,1.9-.5,3.8-.4,4.7,1.6,1.4,3.3-3.9-1.1-2.7,2.3-2.9.4-1.8,2.7-2,4.3-.6,4.8.9,9.8-.9,14.7Z"/>
    <path class="st76" d="M281.6,139c-.7-1.6-2.5-2-3.7-3.1-3.2-3-4.8-6.4-3.4-10.9,2.3-3,4.7-5.9,6.9-9,4-5.4,7.7-6.4,14.2-3.9-3.4,7.7-4.2,15.7-2.1,23.9-3.7,2.1-8.5-.2-11.9,3Z"/>
  </g>
  <path class="st47" d="M268,283.1c-5.5-5.1-6.5-13.1-10.7-19.1-2-2.9-3.5-5.7-5.2-8.8-.4-.6-1.3-2.2-1.7-2.9-4.2-8.1-9.6-15.6-13.9-23.8.4-.2.5-1.1,1-1.3,6.5,7.6,12.5,17.3,16.6,26.3,4.9,4.5,5,11.8,8.9,16.9,1.9,2.5,3.2,5.4,4.8,8.1,1,1.6,1.5,3,.2,4.6Z"/>
  <path class="st133" d="M260.9,258.2c-1.8.3-1.6,1.8-3.1.7-1.7-1.3-1-2.2.9-3.7,1.2.7,1.8,1.8,2.2,3Z"/>
</svg>